<?xml version="1.0" standalone="no"?>
<!DOCTYPE svg PUBLIC "-//W3C//DTD SVG 1.1//EN" "http://www.w3.org/Graphics/SVG/1.1/DTD/svg11.dtd">
<svg xmlns="http://www.w3.org/2000/svg"><metadata>This SVG WebFont was generated by YouWorkForThem.
Copyright Â© 2017 by Samuel Oakes. All rights reserved.</metadata><defs><font horiz-adv-x="1163" id="ywftsvg"><font-face ascent="1638" bbox="-92.069 -649 2195 1905" cap-height="1434" descent="-410" font-family="" font-stretch="normal" font-weight="500" panose-1="0 0 6 0 0 0 0 0 0 0" underline-position="0" underline-thickness="0" unicode-range="U+0020-2265" units-per-em="2048" x-height="1024"/><missing-glyph horiz-adv-x="1228"/><glyph glyph-name=".notdef" horiz-adv-x="1228"/><glyph glyph-name="glyph1" horiz-adv-x="1228"/><glyph glyph-name="glyph2" horiz-adv-x="681"/><glyph glyph-name="space" horiz-adv-x="573" unicode=" "/><glyph d="M119 422l-25 1114h195l-25 -1114h-145zM90 0v227h213v-227h-213z" glyph-name="exclam" horiz-adv-x="485" unicode="!"/><glyph d="M123 1227l-62 174v227h211v-227l-61 -174h-88zM473 1227l-61 174v227h213v-227l-62 -174h-90z" glyph-name="quotedbl" horiz-adv-x="716" unicode="&quot;"/><glyph d="M365 0l49 342h-271l15 152h276l64 438h-269l17 151h272l49 355h152l-47 -355h350l47 355h152l-47 -355h239l-16 -151h-242l-65 -438h237l-14 -152h-244l-53 -342h-150l49 342h-352l-47 -342h-151zM586 494h350l68 438h-357z" glyph-name="numbersign" horiz-adv-x="1536" unicode="#"/><glyph d="M629 -113v107q-201 20 -340 137t-152 313h205q23 -135 122 -209.5t261 -74.5q145 0 228 70.5t83 177.5q0 98 -71.5 153t-239.5 80q-549 76 -549 406q0 162 124 275.5t318 125.5v102h177v-114q188 -31 298.5 -146.5t114.5 -296.5h-192q-10 133 -103.5 206t-242.5 73 q-131 0 -212 -65.5t-81 -153.5q0 -186 338 -232q287 -39 405.5 -141t118.5 -277q0 -168 -119 -278.5t-315 -132.5v-105h-176z" glyph-name="dollar" horiz-adv-x="1316" unicode="$"/><glyph d="M117 0l1057 1536h182l-1057 -1536h-182zM403.5 963q-110.5 0 -188.5 82.5t-78 201.5t78 202t188.5 83t188.5 -83t78 -202t-78 -201.5t-188.5 -82.5zM403 1098q53 0 90 43t37 104.5t-36.5 104.5t-90.5 43q-51 0 -87.5 -43t-36.5 -104.5t36.5 -104.5t87.5 -43zM1083.5 -8 q-110.5 0 -188.5 83t-78 201.5t78 201.5t188.5 83t188.5 -83t78 -201.5t-78 -201.5t-188.5 -83zM1083.5 129q53.5 0 90 43t36.5 104.5t-36.5 103.5t-90 42t-89.5 -42t-36 -104q0 -63 36 -105t89.5 -42z" glyph-name="percent" horiz-adv-x="1480" unicode="%"/><glyph d="M590 -29q-193 0 -322 113t-129 281q0 252 262 415q-162 184 -161 336q0 141 105.5 241.5t256.5 100.5q147 0 248.5 -95t101.5 -237q0 -115 -78.5 -216t-201.5 -162l295 -291l84 147l213 2l-158 -282l324 -324h-244l-180 180q-160 -209 -416 -209zM555 870 q102 47 165.5 116t63.5 138q0 74 -51 124t-129 50q-76 0 -130 -51t-54 -121q0 -117 135 -256zM582 145q174 0 292 164l-356 346q-203 -113 -203 -274q0 -104 78 -170t189 -66z" glyph-name="ampersand" horiz-adv-x="1521" unicode="&amp;"/><glyph d="M86 1227l-61 174v227h211v-227l-62 -174h-88z" glyph-name="quotesingle" horiz-adv-x="241" unicode="'"/><glyph d="M485 -459q-154 197 -248 473.5t-94 583.5t92.5 584.5t249.5 435.5h160q-168 -188 -258 -457.5t-90 -562.5q0 -291 96 -564.5t246 -492.5h-154z" glyph-name="parenleft" horiz-adv-x="634" unicode="("/><glyph d="M55 -459q150 219 246 492.5t96 564.5q0 293 -90 562.5t-258 457.5h160q158 -158 250 -435.5t92 -584.5t-94.5 -583.5t-247.5 -473.5h-154z" glyph-name="parenright" horiz-adv-x="675" unicode=")"/><glyph d="M238 1018l-107 63l115 154l-193 -18v120l193 -20l-115 156l107 63l77 -178l80 178l107 -63l-115 -156l193 20v-120l-193 18l115 -154l-107 -63l-80 176z" glyph-name="asterisk" horiz-adv-x="620" unicode="*"/><glyph d="M760 59v457h-416v139h416v455h135v-455h416v-139h-416v-457h-135z" glyph-name="plus" horiz-adv-x="1652" unicode="+"/><glyph d="M43 -221v106q104 4 98 115h-108v227h213l-2 -227q2 -109 -53.5 -165t-147.5 -56z" glyph-name="comma" horiz-adv-x="303" unicode=","/><glyph d="M193 596v135h716v-135h-716z" glyph-name="hyphen" horiz-adv-x="1099" unicode="-"/><glyph d="M61 0v227h213v-227h-213z" glyph-name="period" horiz-adv-x="352" unicode="."/><glyph d="M147 -410l902 1946h172l-899 -1946h-175z" glyph-name="slash" horiz-adv-x="1179" unicode="/"/><glyph d="M643 -18q-248 0 -397.5 199.5t-149.5 527.5q0 332 150.5 533.5t400.5 201.5q246 0 396.5 -202t150.5 -529.5t-151.5 -529t-399.5 -201.5zM645 141q168 0 268.5 156t100.5 410q0 260 -101.5 417.5t-271.5 157.5q-168 0 -265 -152.5t-97 -410.5q0 -262 99 -420t267 -158z " glyph-name="zero" horiz-adv-x="1290" unicode="0"/><glyph d="M1006 0h-850v156h346v1069l-338 -252v176l360 274h146v-1267h336v-156z" glyph-name="one" horiz-adv-x="1130" unicode="1"/><glyph d="M86 0v176l401 354q111 98 160 144.5t105.5 110t76 113.5t19.5 110q0 125 -78 199.5t-207 74.5q-127 0 -210 -78t-95 -211h-188q12 203 149 329t344 126q201 0 333 -124t132 -310q0 -80 -24.5 -149.5t-86 -144.5t-110.5 -123t-154 -142l-317 -287l711 2v-170h-961z" glyph-name="two" horiz-adv-x="1114" unicode="2"/><glyph d="M782 748q119 -39 200 -128.5t79 -232.5q-2 -174 -135 -290.5t-346 -116.5q-221 0 -361.5 129t-148.5 333h186q-2 -131 87 -213t230 -82q137 0 220.5 72t83.5 174q0 115 -95.5 183.5t-255.5 68.5h-69v172h61q145 0 233.5 66.5t88.5 177.5q0 98 -77 158.5t-198 60.5 q-131 0 -207.5 -77t-85.5 -212h-184q8 209 139 334t348 125q199 0 324 -103.5t125 -265.5q0 -119 -73 -207.5t-169 -125.5z" glyph-name="three" horiz-adv-x="1130" unicode="3"/><glyph d="M915 0h-176v299h-696v156l666 979h206v-971h211v-166h-211v-297zM739 1206l-508 -743h508v743z" glyph-name="four" horiz-adv-x="1171" unicode="4"/><glyph d="M602 954q197 0 329 -133t132 -342t-140.5 -349t-353.5 -140q-209 0 -347 129t-136 327h174q2 -137 87 -213.5t224 -76.5q135 0 222.5 92t89.5 221q2 137 -86 232.5t-222 95.5q-152 0 -258 -109h-186l121 746h713v-168h-578l-65 -408q124 96 280 96z" glyph-name="five" horiz-adv-x="1144" unicode="5"/><glyph d="M592 -8q-238 0 -382 186.5t-144 532.5q0 170 32.5 302t83.5 212t123 131t142.5 69.5t148.5 18.5q186 0 310 -107.5t149 -271.5l-170 -2q-27 115 -113 172t-197 51q-326 -23 -337 -510v-53q57 102 157.5 157.5t218.5 55.5q193 0 326 -130t133 -337q0 -219 -140 -347 t-341 -130zM592 156q127 0 209 90t82 219q0 127 -83 211t-208 84t-212 -88t-87 -215q0 -121 86 -211t213 -90z" glyph-name="six" horiz-adv-x="1136" unicode="6"/><glyph d="M434 0h-186l614 1274h-801v160h990v-156z" glyph-name="seven" horiz-adv-x="1112" unicode="7"/><glyph d="M563 -18q-219 0 -349 120.5t-130 294.5q0 131 71.5 227.5t192.5 139.5q-102 35 -166.5 124t-64.5 195q0 158 122.5 261.5t319.5 103.5q199 0 326 -104.5t127 -262.5q0 -115 -71 -200.5t-165 -116.5q125 -41 196.5 -139.5t71.5 -229.5q0 -172 -131 -292.5t-350 -120.5z M563 852q115 0 189.5 63.5t74.5 159.5q0 88 -75.5 153.5t-190.5 65.5t-188.5 -64.5t-73.5 -152.5q0 -98 73.5 -161.5t190.5 -63.5zM563 141q129 0 212 74t83 184q0 115 -84 192t-213 77t-210 -75t-81 -192q0 -113 81 -186.5t212 -73.5z" glyph-name="eight" horiz-adv-x="1128" unicode="8"/><glyph d="M547 1444q236 2 381 -185.5t145 -531.5q0 -170 -32.5 -303t-84 -213t-124 -131t-142 -69.5t-147.5 -18.5q-188 2 -312.5 108.5t-148.5 270.5l172 2q27 -117 113 -173.5t196 -47.5q328 18 336 507l2 56q-59 -104 -159.5 -159.5t-219.5 -55.5q-193 0 -324.5 130t-131.5 337 q0 219 140 348t341 129zM545 1282q-127 0 -208 -90t-81 -221q0 -127 83 -211t208 -84t211 88t86 217q0 121 -86 211t-213 90z" glyph-name="nine" horiz-adv-x="1136" unicode="9"/><glyph d="M78 799v225h211v-225h-211zM78 0v227h213v-227h-213z" glyph-name="colon" horiz-adv-x="481" unicode=":"/><glyph d="M180 797v227h213v-227h-213zM190 -221v106q104 4 99 115h-109v227h213l-2 -227q2 -109 -53.5 -165t-147.5 -56z" glyph-name="semicolon" horiz-adv-x="604" unicode=";"/><glyph d="M1323 53l-1130 572v125l1130 567v-156l-963 -475l963 -473v-160z" glyph-name="less" horiz-adv-x="1513" unicode="&lt;"/><glyph d="M131 664v143h1229v-143h-1229zM131 281v143h1229v-143h-1229z" glyph-name="equal" horiz-adv-x="1488" unicode="="/><glyph d="M193 53v160l962 473l-962 475v156l1130 -567v-125z" glyph-name="greater" horiz-adv-x="1513" unicode=">"/><glyph d="M399 367v106q0 115 38 201t93.5 138t110.5 96t93 100.5t38 124.5q0 111 -83 180t-191 69q-104 0 -190.5 -69.5t-92.5 -196.5h-164q0 176 131 297t312 121q190 0 317 -120t127 -281q0 -86 -38 -157t-92 -120t-107.5 -97t-91.5 -117t-38 -150v-125h-172zM383 0v227h211 v-227h-211z" glyph-name="question" horiz-adv-x="1077" unicode="?"/><glyph d="M688 -35q-274 0 -460.5 175t-186.5 440q0 274 194.5 470.5t469.5 196.5q268 0 442 -164.5t174 -418.5q0 -170 -92 -283t-221 -113q-125 0 -172 90q-86 -98 -203 -98q-121 0 -193.5 79t-72.5 208q0 152 90 259t217 107q111 0 160 -77l4 65h161l-34 -307q0 -6 -4.5 -46 t-6.5 -46q-6 -90 54 -90q66 0 113.5 68.5t47.5 181.5q0 199 -127 319.5t-337 120.5q-215 0 -360.5 -150.5t-145.5 -369.5q0 -209 139 -340t350 -131h522v-146h-522zM647 403q66 0 114 63.5t48 151.5q0 72 -32 111t-89 39q-66 0 -112 -63.5t-46 -157.5q0 -144 117 -144z" glyph-name="at" horiz-adv-x="1327" unicode="@"/><glyph d="M262 0l-205 2l549 1432h189l548 -1434h-204l-142 377h-594zM457 547h487l-244 667z" glyph-name="A" horiz-adv-x="1400" unicode="A"/><glyph d="M170 -4v1438h602q164 -4 273.5 -105.5t109.5 -265.5q0 -96 -51 -175t-133 -114q111 -43 179.5 -144.5t66.5 -234.5q-2 -176 -114 -287.5t-292 -111.5h-641zM348 827h416q86 0 147.5 62.5t61.5 152.5q0 98 -59.5 164t-155.5 66h-410v-445zM350 172h422q106 0 177 66.5 t71 171.5q0 109 -70.5 183.5t-177.5 74.5h-422v-496z" glyph-name="B" horiz-adv-x="1304" unicode="B"/><glyph d="M756 -10q-283 0 -471.5 203.5t-186.5 517.5q2 324 189.5 529.5t478.5 205.5q246 0 408.5 -139.5t195.5 -354.5h-201q-27 133 -138 224.5t-269 91.5q-205 0 -334 -159t-129 -402q0 -233 127 -385t328 -152q162 0 275.5 94t139.5 225h201q-35 -217 -200.5 -358t-413.5 -141 z" glyph-name="C" horiz-adv-x="1458" unicode="C"/><glyph d="M170 -4v1438l518 4q293 2 479.5 -197t186.5 -514q0 -319 -180.5 -522t-464.5 -205zM344 172l336 4q219 2 356.5 151.5t137.5 391.5q0 244 -135.5 393.5t-350.5 144.5l-344 -4v-1081z" glyph-name="D" horiz-adv-x="1452" unicode="D"/><glyph d="M170 0v1434h915v-174h-737v-449h694v-170h-694v-467h737v-174h-915z" glyph-name="E" unicode="E"/><glyph d="M170 0v1434h903v-170h-725v-459h682v-158h-682v-647h-178z" glyph-name="F" horiz-adv-x="1089" unicode="F"/><glyph d="M758 -10q-283 0 -472.5 203.5t-187.5 517.5q2 322 192.5 529.5t483.5 207.5q244 0 411 -140.5t197 -355.5h-200q-25 133 -139.5 226.5t-272.5 93.5q-207 0 -340 -161t-133 -404q0 -233 131 -387t334 -154q154 2 284 99t158 288h-426v174l608 -2v-725h-161l-8 236 q-72 -121 -196 -183.5t-263 -62.5z" glyph-name="G" horiz-adv-x="1546" unicode="G"/><glyph d="M170 0v1434h190v-621h723v621h191v-1434h-191v651h-723v-651h-190z" glyph-name="H" horiz-adv-x="1443" unicode="H"/><glyph d="M180 0v1434h187v-1434h-187z" glyph-name="I" horiz-adv-x="546" unicode="I"/><glyph d="M471 -16q-193 0 -312.5 117.5t-121.5 314.5v110h174v-106q2 -121 73.5 -193.5t186.5 -72.5t183.5 77.5t68.5 212.5v990h184v-994q0 -211 -123 -333.5t-313 -122.5z" glyph-name="J" horiz-adv-x="1056" unicode="J"/><glyph d="M170 0v1434h174v-721l664 721h225l-592 -643l610 -791h-231l-504 659l-172 -188v-471h-174z" glyph-name="K" horiz-adv-x="1277" unicode="K"/><glyph d="M170 0v1434h188v-1256h646v-178h-834z" glyph-name="L" horiz-adv-x="1050" unicode="L"/><glyph d="M170 0v1434h233l465 -1205l453 1205h225v-1434h-174v1110l-416 -1110h-182l-422 1118v-1118h-182z" glyph-name="M" horiz-adv-x="1716" unicode="M"/><glyph d="M1063 0l-719 1161v-1161h-174v1434h219l731 -1184v1184h174v-1436z" glyph-name="N" horiz-adv-x="1464" unicode="N"/><glyph d="M770 -20q-285 0 -478.5 211.5t-193.5 525.5q0 317 191.5 525t480.5 208t480.5 -209t191.5 -528q0 -313 -193.5 -523t-478.5 -210zM768 158q213 0 350 156.5t137 392.5q0 246 -136 407.5t-349 161.5t-347 -161t-134 -404q0 -238 135 -395.5t344 -157.5z" glyph-name="O" horiz-adv-x="1540" unicode="O"/><glyph d="M170 -2v1436l588 2q186 0 303 -121t117 -309q0 -186 -119 -304t-314 -118h-397v-586h-178zM348 743h375q123 0 200.5 71t77.5 194q0 125 -77.5 197.5t-200.5 72.5h-375v-535z" glyph-name="P" horiz-adv-x="1234" unicode="P"/><glyph d="M1356 -70l-223 168q-162 -111 -371 -110q-281 0 -472.5 207.5t-191.5 521t190.5 519.5t473 206t474 -207t191.5 -522q0 -305 -176 -508l203 -152zM760 162q115 0 209 59l-181 135l103 123l211 -160q137 154 137 388q0 240 -136 400.5t-341 160.5q-203 0 -337 -159 t-134 -398q0 -236 133 -392.5t336 -156.5z" glyph-name="Q" horiz-adv-x="1552" unicode="Q"/><glyph d="M170 -2v1436l590 2q193 0 306.5 -107.5t113.5 -281.5q0 -121 -64.5 -215.5t-157.5 -124.5q100 -31 140.5 -112t52.5 -230q2 -41 7 -110t7 -89.5t7.5 -57t14.5 -59t23 -49.5h-204q-8 23 -14.5 43t-10.5 52t-5 53.5t-5 77t-6 87.5q-4 72 -9.5 109t-21.5 85t-45 70.5t-80 40 t-127 17.5h-332v-637h-180zM350 795h375q123 0 201 63.5t78 175.5q0 121 -74 182.5t-205 61.5h-375v-483z" glyph-name="R" horiz-adv-x="1331" unicode="R"/><glyph d="M668 -14q-229 0 -396.5 118.5t-183.5 337.5h205q23 -135 122 -209.5t261 -74.5q145 0 228 70.5t83 177.5q0 98 -70.5 153t-238.5 80q-551 72 -551 405q0 168 141.5 285t349.5 117q246 0 390.5 -122t150.5 -333h-192q-8 133 -102.5 206t-243.5 73q-129 0 -210 -65.5 t-81 -153.5q0 -184 336 -234q287 -39 405.5 -141.5t118.5 -274.5q0 -188 -144.5 -301.5t-377.5 -113.5z" glyph-name="S" horiz-adv-x="1277" unicode="S"/><glyph d="M524 0l2 1264h-508l-2 170h1192l2 -170l-505 2l-3 -1266h-178z" glyph-name="T" horiz-adv-x="1226" unicode="T"/><glyph d="M711 -16q-254 0 -407.5 151.5t-153.5 407.5v891h180v-891q0 -182 103.5 -285.5t277.5 -103.5t277.5 103t103.5 286v891h182v-891q0 -256 -153.5 -407.5t-409.5 -151.5z" glyph-name="U" horiz-adv-x="1423" unicode="U"/><glyph d="M565 0l-528 1434h184l443 -1211l438 1211h186l-528 -1434h-195z" glyph-name="V" horiz-adv-x="1325" unicode="V"/><glyph d="M463 0l-416 1434h182l330 -1180l318 1180h174l329 -1180l314 1180h182l-403 -1434h-187l-321 1149l-314 -1149h-188z" glyph-name="W" horiz-adv-x="1923" unicode="W"/><glyph d="M57 0l531 717l-531 717h224l415 -570l414 570h223l-530 -717l530 -717h-223l-414 569l-415 -569h-224z" glyph-name="X" horiz-adv-x="1390" unicode="X"/><glyph d="M561 0v586l-524 848h199l415 -684l428 684h187l-525 -848v-586h-180z" glyph-name="Y" horiz-adv-x="1302" unicode="Y"/><glyph d="M98 0v178l926 1077h-913v179h1136v-179l-917 -1077h905v-178h-1137z" glyph-name="Z" horiz-adv-x="1325" unicode="Z"/><glyph d="M170 -649v2322h383v-135h-236v-2052h236v-135h-383z" glyph-name="bracketleft" horiz-adv-x="552" unicode="["/><glyph d="M1055 -451l-971 1987h174l971 -1987h-174z" glyph-name="backslash" horiz-adv-x="1179" unicode="\"/><glyph d="M170 -649v135h236v2052h-236v135h383v-2322h-383z" glyph-name="bracketright" horiz-adv-x="552" unicode="]"/><glyph d="M193 -139v139h1024v-139h-1024z" glyph-name="underscore" horiz-adv-x="1406" unicode="_"/><glyph d="M424 -20q-143 0 -244.5 83.5t-101.5 225.5q0 143 94 219q96 76 279 92q70 6 105.5 11t89.5 19.5t80 42t26 66.5q0 68 -58.5 110t-146.5 42q-109 0 -172.5 -54.5t-75.5 -134.5l-184 -2q16 154 130.5 251.5t293.5 97.5q184 0 289.5 -97.5t105.5 -251.5v-700h-182v137 q-123 -157 -328 -157zM451 137q111 -4 205 65.5t96 203.5l2 120q-66 -47 -265 -63q-223 -20 -223 -164q0 -74 52.5 -116t132.5 -46z" glyph-name="a" horiz-adv-x="1062" unicode="a"/><glyph d="M657 -23q-117 0 -209 54.5t-129 124.5v-156h-169v1434h169v-576q45 78 135.5 127t209.5 49q190 0 324 -144.5t134 -384t-139.5 -384t-325.5 -144.5zM631 143q135 0 219 103.5t84 267.5q0 158 -84 258t-219 100q-139 0 -226.5 -105t-87.5 -269q0 -156 86.5 -255.5 t227.5 -99.5z" glyph-name="b" horiz-adv-x="1200" unicode="b"/><glyph d="M553 -14q-207 0 -341 146.5t-134 379.5q0 236 135 384t348 148q170 0 292 -100t142 -258h-180q-18 88 -89 146.5t-169 58.5q-129 0 -211 -101.5t-82 -271.5t82 -271.5t211 -101.5q100 0 171 59.5t87 145.5h180q-23 -160 -145.5 -262t-296.5 -102z" glyph-name="c" horiz-adv-x="1075" unicode="c"/><glyph d="M543 -23q-186 0 -325.5 144.5t-139.5 384t134 384t325 144.5q117 0 207 -49t137 -127v576h170v-1434h-170v156q-37 -70 -129 -124.5t-209 -54.5zM567 143q141 0 228.5 99.5t87.5 255.5q0 164 -87 269t-229 105q-135 0 -219 -100t-84 -258q0 -164 84 -267.5t219 -103.5z " glyph-name="d" horiz-adv-x="1200" unicode="d"/><glyph d="M559 -23q-219 0 -350 142.5t-131 384.5q0 238 131 385t348 147q219 0 342 -161.5t113 -415.5h-750v-2q0 -147 81 -235.5t218 -88.5q86 0 163 48t105 145h166q-23 -154 -141.5 -251.5t-294.5 -97.5zM268 616h555q-10 121 -79.5 193t-192.5 72q-121 0 -197 -73t-86 -192z " glyph-name="e" horiz-adv-x="1091" unicode="e"/><glyph d="M168 0v872h-152v152h152v143q0 121 72.5 194t191.5 73h162l2 -158h-129q-66 0 -96.5 -33t-30.5 -108v-111h250v-152h-250v-872h-172z" glyph-name="f" horiz-adv-x="612" unicode="f"/><glyph d="M561 -426q-195 0 -317.5 102.5t-130.5 253.5l176 -2q20 -111 106 -154.5t170 -43.5q147 0 237.5 88t90.5 266v111q-47 -92 -147.5 -148.5t-215.5 -56.5q-207 0 -329.5 147.5t-122.5 380.5q0 229 129 379t330 150q111 0 209 -55.5t147 -145.5v178h172v-940 q0 -252 -137.5 -381t-366.5 -129zM569 152q141 0 228.5 105t87.5 269q0 156 -87 255.5t-229 99.5q-135 0 -219 -103.5t-84 -267.5q0 -158 84 -258t219 -100z" glyph-name="g" horiz-adv-x="1204" unicode="g"/><glyph d="M150 0v1434h176v-547q39 63 121.5 113.5t193.5 50.5q154 0 268.5 -104.5t114.5 -317.5v-629h-186v614q-2 131 -65.5 205t-166.5 74q-123 0 -201.5 -96.5t-78.5 -255.5v-541h-176z" glyph-name="h" unicode="h"/><glyph d="M139 1217v217h199v-217h-199zM147 0v1024h185v-1024h-185z" glyph-name="i" horiz-adv-x="477" unicode="i"/><glyph d="M145 1217v217h201v-217h-201zM-25 -362v167h43q63 0 102.5 39t39.5 117v1063h174v-1087q0 -139 -80 -219t-211 -80h-68z" glyph-name="j" horiz-adv-x="475" unicode="j"/><glyph d="M150 0v1434h174v-859l424 449h217l-381 -403l422 -619l-201 -2l-336 492l-145 -152v-340h-174z" glyph-name="k" horiz-adv-x="1042" unicode="k"/><glyph d="M150 0v1434h182v-1434h-182z" glyph-name="l" horiz-adv-x="481" unicode="l"/><glyph d="M150 0v1024h176v-137q39 66 115.5 115t187.5 49q49 0 100 -12.5t120 -60.5t112 -130q51 92 141 147.5t211 55.5q154 0 269.5 -105.5t115.5 -316.5v-629h-187v614q0 135 -63.5 207t-167.5 72q-117 0 -192.5 -96.5t-75.5 -255.5v-541h-187v614q0 135 -63.5 207t-167.5 72 q-117 0 -192.5 -96.5t-75.5 -255.5v-541h-176z" glyph-name="m" horiz-adv-x="1837" unicode="m"/><glyph d="M150 0v1024h176v-137q39 63 121.5 113.5t193.5 50.5q154 0 268.5 -104.5t114.5 -317.5v-629h-186v614q0 133 -63.5 206t-168.5 73q-119 0 -199.5 -97.5t-80.5 -254.5v-541h-176z" glyph-name="n" unicode="n"/><glyph d="M565 -10q-211 0 -349 147.5t-138 374.5q0 231 138 378.5t349 147.5q213 0 349.5 -147.5t136.5 -378.5q0 -227 -138.5 -374.5t-347.5 -147.5zM563 154q141 0 227.5 100t86.5 256q0 162 -82 262t-230 100q-141 0 -225 -100t-84 -260q0 -158 84 -258t223 -100z" glyph-name="o" horiz-adv-x="1128" unicode="o"/><glyph d="M150 -410v1434h169v-156q37 70 129.5 124.5t208.5 54.5q186 0 325.5 -144.5t139.5 -384t-134 -384t-324 -144.5q-119 0 -209 49t-136 127v-576h-169zM631 152q135 0 219 100t84 258q0 164 -84 267.5t-219 103.5q-141 0 -227.5 -99.5t-86.5 -255.5q0 -164 87.5 -269 t226.5 -105z" glyph-name="p" horiz-adv-x="1200" unicode="p"/><glyph d="M881 -410v576q-47 -78 -137.5 -127t-206.5 -49q-190 0 -324.5 144.5t-134.5 384t139 384t326 144.5q117 0 209 -54.5t129 -124.5v156h170v-1434h-170zM567 152q141 0 228.5 105t87.5 269q0 156 -87 255.5t-229 99.5q-135 0 -219 -103.5t-84 -267.5q0 -158 84 -258 t219 -100z" glyph-name="q" horiz-adv-x="1200" unicode="q"/><glyph d="M150 0v1024h172v-133q16 33 42.5 62.5t98.5 59t168 27.5h28v-178l-20 -2q-317 8 -317 -305v-555h-172z" glyph-name="r" horiz-adv-x="684" unicode="r"/><glyph d="M500 -23q-178 0 -301 91.5t-131 259.5h172q14 -96 84.5 -147.5t175.5 -51.5q102 0 155.5 48t53.5 120q0 61 -49.5 99t-167.5 57q-221 33 -307.5 110.5t-86.5 190.5q0 119 103.5 203.5t263.5 84.5q166 0 280.5 -87t122.5 -261h-166q-20 195 -233 195q-80 0 -137.5 -38 t-57.5 -99q0 -117 217.5 -148t308.5 -104.5t91 -202.5q0 -141 -112.5 -230.5t-278.5 -89.5z" glyph-name="s" horiz-adv-x="958" unicode="s"/><glyph d="M418 0q-119 0 -191.5 72.5t-72.5 193.5v606h-158v152h158v309h172v-309h252v-152h-252v-573q0 -74 29.5 -106.5t97.5 -32.5h129l-2 -160h-162z" glyph-name="t" horiz-adv-x="618" unicode="t"/><glyph d="M522 -27q-154 0 -268.5 104.5t-114.5 317.5v629h187v-614q0 -129 64.5 -204t166.5 -75q123 0 202 96.5t79 255.5v541h176v-1024h-176v137q-41 -63 -124 -113.5t-192 -50.5z" glyph-name="u" unicode="u"/><glyph d="M424 0l-408 1024h189l303 -799l299 799h192l-409 -1024h-166z" glyph-name="v" horiz-adv-x="1015" unicode="v"/><glyph d="M354 0l-327 1024h194l230 -799l225 799h158l229 -799l225 799h197l-328 -1024h-190l-209 729l-211 -729h-193z" glyph-name="w" horiz-adv-x="1511" unicode="w"/><glyph d="M37 0l373 512l-373 512h207l268 -371l264 371h207l-373 -512l373 -512h-207l-266 373l-266 -373h-207z" glyph-name="x" horiz-adv-x="1019" unicode="x"/><glyph d="M82 -410l-2 162h84q135 0 192 146l62 163l-402 963h195l297 -745l285 745h194l-459 -1165q-51 -135 -134 -202t-218 -67h-94z" glyph-name="y" horiz-adv-x="1003" unicode="y"/><glyph d="M78 0v162l608 700h-608v164l821 -2v-162l-604 -700h604v-162h-821z" glyph-name="z" horiz-adv-x="997" unicode="z"/><glyph d="M496 -635q-88 0 -159 78t-71 184v486q0 152 -27.5 219t-125.5 117v124q98 51 125.5 120t27.5 214v486q0 115 68.5 187.5t159.5 72.5h51v-133q-76 0 -107.5 -36t-31.5 -112v-495q0 -131 -29 -217.5t-121 -149.5q92 -61 121 -148.5t29 -218.5v-501q0 -74 32.5 -108 t106.5 -34v-135h-49z" glyph-name="braceleft" horiz-adv-x="653" unicode="{"/><glyph d="M223 -307v1843h142v-1843h-142z" glyph-name="bar" horiz-adv-x="587" unicode="|"/><glyph d="M113 -635v133q76 0 107.5 35t31.5 111v497q0 131 28.5 218t120.5 149q-92 63 -120.5 149t-28.5 217v500q0 74 -33 109t-106 35v135h49q88 0 158.5 -76t70.5 -186v-486q0 -147 27.5 -215.5t126.5 -118.5v-125q-100 -51 -127 -118.5t-27 -216.5v-486q0 -111 -69.5 -185.5 t-157.5 -74.5h-51z" glyph-name="braceright" horiz-adv-x="653" unicode="}"/><glyph d="M184 895v227h213v-227h-213zM197 -414l24 1114h146l24 -1114h-194z" glyph-name="exclamdown" horiz-adv-x="583" unicode="¡"/><glyph d="M489 0v156q-182 23 -294.5 165t-112.5 355q0 215 112.5 358.5t294.5 169.5v158h150v-158q145 -23 244.5 -119t115.5 -235h-180q-18 88 -89 146.5t-169 58.5q-129 0 -211 -101.5t-82 -271.5q0 -168 83 -270.5t210 -102.5q100 0 171 59.5t87 145.5h180 q-18 -139 -117.5 -236.5t-244.5 -119.5v-158h-148z" glyph-name="cent" horiz-adv-x="1097" unicode="¢"/><glyph d="M1139 291q-8 -143 -101.5 -226t-218.5 -83q-96 0 -235.5 70.5t-200.5 70.5q-53 0 -94 -32t-45 -93h-156q-2 98 46 169t136 99q35 68 37 148q2 106 -35 221h-168v147h138q-53 182 -52 295q4 174 131.5 293t315.5 119q186 0 313 -104.5t142 -284.5h-168q-16 127 -99.5 183 t-193.5 56q-119 -2 -201 -77.5t-84 -192.5q0 -70 55 -287h451v-147h-410q31 -147 29 -223q-2 -70 -27 -146q53 -10 179.5 -67.5t177.5 -57.5q78 0 120 40t46 110h172z" glyph-name="sterling" horiz-adv-x="1228" unicode="£"/><glyph d="M618 0v270h-421v144h421v149h-421v146h381l-488 766h201l418 -672l430 672h188l-485 -766h383v-146h-426v-149h426v-144h-426v-270h-181z" glyph-name="yen" horiz-adv-x="1357" unicode="¥"/><glyph d="M186 799v737h154v-737h-154zM186 -307v737h154v-737h-154z" glyph-name="brokenbar" horiz-adv-x="587" unicode="¦"/><glyph d="M899 -31q-330 0 -564.5 233.5t-234.5 563.5t234.5 564.5t564.5 234.5t563.5 -234.5t233.5 -564.5q0 -328 -233.5 -562.5t-563.5 -234.5zM899 72q291 0 493.5 202.5t202.5 491.5q0 291 -202.5 493.5t-493.5 202.5t-493.5 -202.5t-202.5 -493.5q0 -289 202.5 -491.5 t493.5 -202.5zM895 299q-182 0 -303 132t-119 331q2 207 122 339t308 132q156 0 261.5 -89t127.5 -229h-139q-18 82 -88 138.5t-164 56.5q-127 0 -208 -98.5t-81 -251.5q0 -147 79 -240.5t204 -93.5q100 0 170 57.5t88 139.5h139q-25 -141 -131 -232.5t-266 -91.5z" glyph-name="copyright" horiz-adv-x="1794" unicode="©"/><glyph d="M498 195l-312 376l312 377h168l-312 -377l312 -376h-168zM899 195l-311 376l311 377h170l-311 -377l311 -376h-170z" glyph-name="guillemotleft" horiz-adv-x="1253" unicode="«"/><glyph d="M193 459v127h716v-127h-716z" glyph-name="uni00AD" horiz-adv-x="1208" unicode="­"/><glyph d="M897 -29q-328 0 -562.5 233.5t-234.5 563.5t234.5 563.5t562.5 233.5t562.5 -233.5t234.5 -563.5t-234.5 -563.5t-562.5 -233.5zM897 72q291 0 494.5 202.5t203.5 493.5t-203.5 493.5t-494.5 202.5t-493.5 -202.5t-202.5 -493.5t202.5 -493.5t493.5 -202.5zM1112 336 q-14 31 -27 192q-4 53 -9 80t-20.5 57.5t-48 42t-87.5 11.5h-191v-381h-125v881h367q119 0 190.5 -68t71.5 -174q0 -74 -37 -130t-90 -79q96 -37 108 -207q2 -16 4.5 -44t3.5 -39t2 -30.5t3 -27.5t4 -22.5t5 -22.5t7 -18.5t8 -20.5h-139zM729 829h219q72 0 117 36t45 104 q0 139 -162 139h-219v-279z" glyph-name="registered" horiz-adv-x="1794" unicode="®"/><glyph d="M508 1008q-113 0 -194 80.5t-81 193.5q0 115 80 194.5t195 79.5q113 0 193.5 -80.5t80.5 -193.5t-80.5 -193.5t-193.5 -80.5zM507.5 1137q63.5 0 104.5 41t41 104.5t-41 104t-104.5 40.5t-104.5 -40.5t-41 -104t41 -104.5t104.5 -41z" glyph-name="degree" horiz-adv-x="1013" unicode="°"/><glyph d="M186 510v227h213v-227h-213z" glyph-name="periodcentered" horiz-adv-x="552" unicode="·"/><glyph d="M184 195l312 376l-312 377h168l312 -377l-312 -376h-168zM586 195l311 376l-311 377h170l311 -377l-311 -376h-170z" glyph-name="guillemotright" horiz-adv-x="1253" unicode="»"/><glyph d="M463 897v227h213v-227h-213zM561 -410q-188 0 -316 120t-128 282q0 86 38 156.5t91 119.5t107.5 97.5t92 117t37.5 150.5v125h172v-107q0 -115 -37.5 -200.5t-93 -138t-111 -96.5t-93 -100.5t-37.5 -123.5q0 -111 84 -180.5t190 -69.5q104 0 190.5 69.5t92.5 196.5h164 q2 -176 -129.5 -297t-313.5 -121z" glyph-name="questiondown" horiz-adv-x="1081" unicode="¿"/><glyph d="M641 1520l-256 262h225l209 -262h-178zM262 0l-205 2l549 1432h189l548 -1434h-204l-142 377h-594zM457 547h487l-244 667z" glyph-name="Agrave" horiz-adv-x="1185" unicode="À"/><glyph d="M825 1524h-178l211 262h223zM262 0l-205 2l549 1432h189l548 -1434h-204l-142 377h-594zM457 547h487l-244 667z" glyph-name="Aacute" horiz-adv-x="1400" unicode="Á"/><glyph d="M608 1806h244l213 -293h-191l-143 189l-141 -189h-193zM262 0l-205 2l549 1432h189l548 -1434h-204l-142 377h-594zM457 547h487l-244 667z" glyph-name="Acircumflex" horiz-adv-x="1400" unicode="Â"/><glyph d="M848 1507q-121 0 -199 115q-29 49 -76 49q-66 0 -71 -86q0 -25 10 -61h-141q-4 18 -4 53q-2 102 54 166.5t146 64.5q125 0 199 -114q29 -49 78 -49q37 0 55.5 30.5t13.5 83.5q-2 6 -5 16.5t-3 14.5h139q4 -20 5 -29q12 -111 -44.5 -182.5t-156.5 -71.5zM262 0l-205 2 l549 1432h189l548 -1434h-204l-142 377h-594zM457 547h487l-244 667z" glyph-name="Atilde" horiz-adv-x="1400" unicode="Ã"/><glyph d="M434 1536v227h211v-227h-211zM797 1536v227h213v-227h-213zM262 0l-205 2l549 1432h189l548 -1434h-204l-142 377h-594zM457 547h487l-244 667z" glyph-name="Adieresis" horiz-adv-x="1400" unicode="Ä"/><glyph d="M733 1520q-82 0 -138 57t-56 135q0 80 56 136.5t138 56.5q78 0 133.5 -56.5t55.5 -136.5q2 -78 -54.5 -135t-134.5 -57zM733 1622q41 0 65.5 24.5t24.5 65.5t-25.5 67.5t-64.5 26.5q-41 0 -66.5 -26.5t-25.5 -67.5t25.5 -65.5t66.5 -24.5zM262 0l-205 2l549 1432h189 l548 -1434h-204l-142 377h-594zM457 547h487l-244 667z" glyph-name="Aring" horiz-adv-x="1400" unicode="Å"/><glyph d="M1761 1260h-737v-449h694v-170h-694v-467h737v-174h-915v381h-451l-143 -381l-195 2l537 1432h1167v-174zM457 559h389v696h-137z" glyph-name="AE" horiz-adv-x="1839" unicode="Æ"/><glyph d="M754 170q162 0 275.5 94t139.5 225h201q-31 -199 -176 -337t-365 -158l-49 -96q35 8 72 4q80 -6 129 -58.5t49 -132.5q0 -90 -62.5 -152.5t-152.5 -62.5q-72 0 -141.5 41t-95.5 98l104 41q18 -29 57 -50t76 -21q43 0 73 31.5t30 74.5q0 86 -84 96q-43 10 -105 -16l-88 53 l76 148q-268 16 -444.5 216t-174.5 503q2 324 189.5 529.5t478.5 205.5q246 0 408.5 -139.5t195.5 -354.5h-201q-27 133 -138 224.5t-269 91.5q-205 0 -334 -159t-129 -402q0 -233 127 -385t328 -152z" glyph-name="Ccedilla" horiz-adv-x="1458" unicode="Ç"/><glyph d="M621 1520l-256 262h225l209 -262h-178zM170 0v1434h915v-174h-737v-449h694v-170h-694v-467h737v-174h-915z" glyph-name="Egrave" unicode="È"/><glyph d="M643 1520h-178l211 262h223zM170 0v1434h915v-174h-737v-449h694v-170h-694v-467h737v-174h-915z" glyph-name="Eacute" unicode="É"/><glyph d="M532 1815h244l213 -293h-190l-144 188l-141 -188h-192zM170 0v1434h915v-174h-737v-449h694v-170h-694v-467h737v-174h-915z" glyph-name="Ecircumflex" unicode="Ê"/><glyph d="M352 1559v227h211v-227h-211zM715 1559v227h213v-227h-213zM170 0v1434h915v-174h-737v-449h694v-170h-694v-467h737v-174h-915z" glyph-name="Edieresis" unicode="Ë"/><glyph d="M209 1520l-256 262h225l209 -262h-178zM180 0v1434h187v-1434h-187z" glyph-name="Igrave" horiz-adv-x="569" unicode="Ì"/><glyph d="M383 1520h-178l211 262h223zM180 0v1434h187v-1434h-187z" glyph-name="Iacute" horiz-adv-x="819" unicode="Í"/><glyph d="M170 1812h244l213 -292h-191l-143 188l-141 -188h-193zM180 0v1434h187v-1434h-187z" glyph-name="Icircumflex" horiz-adv-x="806" unicode="Î"/><glyph d="M4 1559v227h211v-227h-211zM367 1559v227h213v-227h-213zM180 0v1434h187v-1434h-187z" glyph-name="Idieresis" horiz-adv-x="759" unicode="Ï"/><glyph d="M803 1438q293 2 479 -197t186 -514q0 -319 -180 -522t-465 -205l-538 -4v649h-115v166h115v623zM795 176q219 2 356 151.5t137 391.5q0 244 -135 393.5t-350 144.5l-344 -4v-442h157v-166h-157v-473z" glyph-name="Eth" horiz-adv-x="1566" unicode="Ð"/><glyph d="M883 1522q-121 0 -199 114q-29 49 -76 50q-66 0 -71 -87q0 -25 10 -61h-141q-4 18 -5 53q-2 102 54.5 167t146.5 65q125 0 199 -115q29 -49 78 -49q37 0 55 30.5t14 84.5q-2 4 -4 14t-4 16h139q4 -20 4 -28q12 -111 -44 -182.5t-156 -71.5zM1063 0l-719 1161v-1161h-174 v1434h219l731 -1184v1184h174v-1436z" glyph-name="Ntilde" horiz-adv-x="1464" unicode="Ñ"/><glyph d="M692 1524l-256 262h226l208 -262h-178zM770 -20q-285 0 -478.5 211.5t-193.5 525.5q0 317 191.5 525t480.5 208t480.5 -209t191.5 -528q0 -313 -193.5 -523t-478.5 -210zM768 158q213 0 350 156.5t137 392.5q0 246 -136 407.5t-349 161.5t-347 -161t-134 -404 q0 -238 135 -395.5t344 -157.5z" glyph-name="Ograve" horiz-adv-x="1540" unicode="Ò"/><glyph d="M776 1526h-178l211 262h223zM770 -20q-285 0 -478.5 211.5t-193.5 525.5q0 317 191.5 525t480.5 208t480.5 -209t191.5 -528q0 -313 -193.5 -523t-478.5 -210zM768 158q213 0 350 156.5t137 392.5q0 246 -136 407.5t-349 161.5t-347 -161t-134 -404q0 -238 135 -395.5 t344 -157.5z" glyph-name="Oacute" horiz-adv-x="1540" unicode="Ó"/><glyph d="M674 1808h244l212 -292h-190l-143 188l-142 -188h-192zM770 -20q-285 0 -478.5 211.5t-193.5 525.5q0 317 191.5 525t480.5 208t480.5 -209t191.5 -528q0 -313 -193.5 -523t-478.5 -210zM768 158q213 0 350 156.5t137 392.5q0 246 -136 407.5t-349 161.5t-347 -161 t-134 -404q0 -238 135 -395.5t344 -157.5z" glyph-name="Ocircumflex" horiz-adv-x="1540" unicode="Ô"/><glyph d="M926 1518q-121 0 -199 114q-29 49 -76 49q-66 0 -71 -86q0 -25 10 -61h-141q-4 18 -5 53q-2 102 54.5 167t146.5 65q125 0 199 -115q29 -49 78 -49q37 0 55 30.5t14 83.5q0 6 -4 16.5t-4 14.5h139q4 -20 4 -28q12 -111 -44 -182.5t-156 -71.5zM770 -20 q-285 0 -478.5 211.5t-193.5 525.5q0 317 191.5 525t480.5 208t480.5 -209t191.5 -528q0 -313 -193.5 -523t-478.5 -210zM768 158q213 0 350 156.5t137 392.5q0 246 -136 407.5t-349 161.5t-347 -161t-134 -404q0 -238 135 -395.5t344 -157.5z" glyph-name="Otilde" horiz-adv-x="1540" unicode="Õ"/><glyph d="M504 1536v227h211v-227h-211zM866 1536v227h213v-227h-213zM770 -20q-285 0 -478.5 211.5t-193.5 525.5q0 317 191.5 525t480.5 208t480.5 -209t191.5 -528q0 -313 -193.5 -523t-478.5 -210zM768 158q213 0 350 156.5t137 392.5q0 246 -136 407.5t-349 161.5t-347 -161 t-134 -404q0 -238 135 -395.5t344 -157.5z" glyph-name="Odieresis" horiz-adv-x="1540" unicode="Ö"/><glyph d="M391 123l-125 127l385 385l-385 387l125 125l387 -387l387 387l125 -125l-387 -387l387 -385l-125 -127l-387 387z" glyph-name="multiply" horiz-adv-x="1497" unicode="×"/><glyph d="M1444 1434l-178 -211q176 -205 176 -510q0 -313 -193.5 -523t-478.5 -210q-246 0 -422 157l-117 -137h-190l207 244q-150 201 -150 473q0 317 191.5 525t480.5 208q217 0 389 -127l94 111h191zM289 711q0 -184 82 -320l673 795q-119 90 -274 90q-213 0 -347 -160.5 t-134 -404.5zM1255 707q0 215 -110 374l-682 -807q129 -117 305 -116q213 0 350 156.5t137 392.5z" glyph-name="Oslash" horiz-adv-x="1572" unicode="Ø"/><glyph d="M715 1513l-256 263h225l209 -263h-178zM711 -16q-254 0 -407.5 151.5t-153.5 407.5v891h180v-891q0 -182 103.5 -285.5t277.5 -103.5t277.5 103t103.5 286v891h182v-891q0 -256 -153.5 -407.5t-409.5 -151.5z" glyph-name="Ugrave" horiz-adv-x="1423" unicode="Ù"/><glyph d="M784 1509h-178l211 263h223zM711 -16q-254 0 -407.5 151.5t-153.5 407.5v891h180v-891q0 -182 103.5 -285.5t277.5 -103.5t277.5 103t103.5 286v891h182v-891q0 -256 -153.5 -407.5t-409.5 -151.5z" glyph-name="Uacute" horiz-adv-x="1454" unicode="Ú"/><glyph d="M631 1802h243l213 -293h-190l-143 189l-142 -189h-192zM711 -16q-254 0 -407.5 151.5t-153.5 407.5v891h180v-891q0 -182 103.5 -285.5t277.5 -103.5t277.5 103t103.5 286v891h182v-891q0 -256 -153.5 -407.5t-409.5 -151.5z" glyph-name="Ucircumflex" horiz-adv-x="1423" unicode="Û"/><glyph d="M459 1513v228h211v-228h-211zM821 1513v228h213v-228h-213zM711 -16q-254 0 -407.5 151.5t-153.5 407.5v891h180v-891q0 -182 103.5 -285.5t277.5 -103.5t277.5 103t103.5 286v891h182v-891q0 -256 -153.5 -407.5t-409.5 -151.5z" glyph-name="Udieresis" horiz-adv-x="1423" unicode="Ü"/><glyph d="M707 1464h-179l211 262h224zM561 0v586l-524 848h199l415 -684l428 684h187l-525 -848v-586h-180z" glyph-name="Yacute" horiz-adv-x="1302" unicode="Ý"/><glyph d="M170 0v1434h176v-277l412 2q188 -2 304 -123t116 -307t-119 -304t-314 -118h-397v-307h-178zM348 465h375q123 0 200.5 70.5t77.5 193.5q0 127 -77.5 198.5t-200.5 71.5h-375v-534z" glyph-name="Thorn" horiz-adv-x="1234" unicode="Þ"/><glyph d="M520 -8l-2 174h182q127 0 210 62.5t83 164.5q0 123 -96 190.5t-272 67.5h-60v160h53q156 0 252.5 78t96.5 194q0 104 -84 169t-207 65q-150 0 -236 -88t-86 -234v-1001h-184v1001q0 223 140.5 354.5t377.5 131.5q207 0 340 -107.5t133 -283.5q0 -113 -58.5 -203 t-160.5 -139q119 -43 184.5 -136.5t65.5 -216.5q0 -180 -136 -291.5t-356 -111.5h-180z" glyph-name="germandbls" horiz-adv-x="1280" unicode="ß"/><glyph d="M504 1163l-256 262h225l209 -262h-178zM424 -20q-143 0 -244.5 83.5t-101.5 225.5q0 143 94 219q96 76 279 92q70 6 105.5 11t89.5 19.5t80 42t26 66.5q0 68 -58.5 110t-146.5 42q-109 0 -172.5 -54.5t-75.5 -134.5l-184 -2q16 154 130.5 251.5t293.5 97.5 q184 0 289.5 -97.5t105.5 -251.5v-700h-182v137q-123 -157 -328 -157zM451 137q111 -4 205 65.5t96 203.5l2 120q-66 -47 -265 -63q-223 -20 -223 -164q0 -74 52.5 -116t132.5 -46z" glyph-name="agrave" horiz-adv-x="1062" unicode="à"/><glyph d="M582 1163h-179l211 262h224zM424 -20q-143 0 -244.5 83.5t-101.5 225.5q0 143 94 219q96 76 279 92q70 6 105.5 11t89.5 19.5t80 42t26 66.5q0 68 -58.5 110t-146.5 42q-109 0 -172.5 -54.5t-75.5 -134.5l-184 -2q16 154 130.5 251.5t293.5 97.5q184 0 289.5 -97.5 t105.5 -251.5v-700h-182v137q-123 -157 -328 -157zM451 137q111 -4 205 65.5t96 203.5l2 120q-66 -47 -265 -63q-223 -20 -223 -164q0 -74 52.5 -116t132.5 -46z" glyph-name="aacute" horiz-adv-x="1062" unicode="á"/><glyph d="M444 1442h244l213 -293h-190l-144 188l-141 -188h-193zM424 -20q-143 0 -244.5 83.5t-101.5 225.5q0 143 94 219q96 76 279 92q70 6 105.5 11t89.5 19.5t80 42t26 66.5q0 68 -58.5 110t-146.5 42q-109 0 -172.5 -54.5t-75.5 -134.5l-184 -2q16 154 130.5 251.5 t293.5 97.5q184 0 289.5 -97.5t105.5 -251.5v-700h-182v137q-123 -157 -328 -157zM451 137q111 -4 205 65.5t96 203.5l2 120q-66 -47 -265 -63q-223 -20 -223 -164q0 -74 52.5 -116t132.5 -46z" glyph-name="acircumflex" horiz-adv-x="1071" unicode="â"/><glyph d="M705 1159q-121 0 -199 115q-29 49 -76 49q-66 0 -72 -86q0 -25 11 -61h-142q-4 18 -4 53q-2 102 54.5 166.5t146.5 64.5q125 0 199 -114q29 -49 77 -50q37 0 55.5 31t14.5 84q0 6 -4 16.5t-4 14.5h139q4 -20 4 -29q12 -111 -44 -182.5t-156 -71.5zM424 -20 q-143 0 -244.5 83.5t-101.5 225.5q0 143 94 219q96 76 279 92q70 6 105.5 11t89.5 19.5t80 42t26 66.5q0 68 -58.5 110t-146.5 42q-109 0 -172.5 -54.5t-75.5 -134.5l-184 -2q16 154 130.5 251.5t293.5 97.5q184 0 289.5 -97.5t105.5 -251.5v-700h-182v137 q-123 -157 -328 -157zM451 137q111 -4 205 65.5t96 203.5l2 120q-66 -47 -265 -63q-223 -20 -223 -164q0 -74 52.5 -116t132.5 -46z" glyph-name="atilde" horiz-adv-x="1062" unicode="ã"/><glyph d="M279 1167v228h210v-228h-210zM641 1167v228h213v-228h-213zM424 -20q-143 0 -244.5 83.5t-101.5 225.5q0 143 94 219q96 76 279 92q70 6 105.5 11t89.5 19.5t80 42t26 66.5q0 68 -58.5 110t-146.5 42q-109 0 -172.5 -54.5t-75.5 -134.5l-184 -2q16 154 130.5 251.5 t293.5 97.5q184 0 289.5 -97.5t105.5 -251.5v-700h-182v137q-123 -157 -328 -157zM451 137q111 -4 205 65.5t96 203.5l2 120q-66 -47 -265 -63q-223 -20 -223 -164q0 -74 52.5 -116t132.5 -46z" glyph-name="adieresis" horiz-adv-x="1062" unicode="ä"/><glyph d="M571 1126q-80 0 -137 57.5t-57 135.5q0 80 56 136t138 56q78 0 133.5 -56t55.5 -136q2 -78 -54.5 -135.5t-134.5 -57.5zM571 1229q39 0 65 24.5t26 65.5t-26 67.5t-65 26.5q-41 0 -66.5 -26.5t-25.5 -67.5t25.5 -65.5t66.5 -24.5zM424 -20q-143 0 -244.5 83.5 t-101.5 225.5q0 143 94 219q96 76 279 92q70 6 105.5 11t89.5 19.5t80 42t26 66.5q0 68 -58.5 110t-146.5 42q-109 0 -172.5 -54.5t-75.5 -134.5l-184 -2q16 154 130.5 251.5t293.5 97.5q184 0 289.5 -97.5t105.5 -251.5v-700h-182v137q-123 -157 -328 -157zM451 137 q111 -4 205 65.5t96 203.5l2 120q-66 -47 -265 -63q-223 -20 -223 -164q0 -74 52.5 -116t132.5 -46z" glyph-name="aring" horiz-adv-x="1062" unicode="å"/><glyph d="M1700 459h-750v-2q0 -147 81 -235.5t218 -88.5q86 0 163 48t106 145h165q-23 -154 -141.5 -251.5t-294.5 -97.5q-270 0 -401 209q-33 -78 -148.5 -142t-257.5 -64q-143 0 -252.5 83.5t-109.5 225.5q0 143 94 219q96 76 279 92q70 6 105.5 11t89.5 19.5t80 42t26 66.5 q0 68 -58.5 110t-146.5 42q-109 0 -172.5 -54.5t-75.5 -134.5l-184 -2q16 154 130.5 251.5t293.5 97.5q250 0 350 -168q133 156 356 155q219 0 342 -161.5t113 -415.5zM1239 881q-121 0 -196.5 -73t-86.5 -192h555q-10 121 -79.5 193t-192.5 72zM752 406l2 120 q-66 -47 -265 -63q-223 -18 -223 -164q0 -74 52.5 -116t132.5 -46q111 -6 205 65t96 204z" glyph-name="ae" horiz-adv-x="1777" unicode="æ"/><glyph d="M557 145q100 0 171 59.5t87 145.5h180q-20 -147 -127.5 -246.5t-263.5 -115.5l-61 -119q35 8 71 4q80 -6 129.5 -58.5t49.5 -131.5q0 -90 -62.5 -152.5t-152.5 -62.5q-72 0 -141.5 40.5t-96.5 98.5l104 41q18 -29 57.5 -50.5t76.5 -21.5q43 0 72.5 32t29.5 75 q0 86 -84 96q-43 10 -104 -17l-89 54l89 174q-182 23 -298 165t-116 357q0 236 135 384t348 148q170 0 292 -100t142 -258h-180q-18 88 -89 146.5t-169 58.5q-129 0 -211 -101.5t-82 -271.5t82 -271.5t211 -101.5z" glyph-name="ccedilla" horiz-adv-x="1075" unicode="ç"/><glyph d="M504 1163l-256 262h225l209 -262h-178zM559 -23q-219 0 -350 142.5t-131 384.5q0 238 131 385t348 147q219 0 342 -161.5t113 -415.5h-750v-2q0 -147 81 -235.5t218 -88.5q86 0 163 48t105 145h166q-23 -154 -141.5 -251.5t-294.5 -97.5zM268 616h555q-10 121 -79.5 193 t-192.5 72q-121 0 -197 -73t-86 -192z" glyph-name="egrave" horiz-adv-x="1091" unicode="è"/><glyph d="M588 1163h-178l211 262h223zM559 -23q-219 0 -350 142.5t-131 384.5q0 238 131 385t348 147q219 0 342 -161.5t113 -415.5h-750v-2q0 -147 81 -235.5t218 -88.5q86 0 163 48t105 145h166q-23 -154 -141.5 -251.5t-294.5 -97.5zM268 616h555q-10 121 -79.5 193t-192.5 72 q-121 0 -197 -73t-86 -192z" glyph-name="eacute" horiz-adv-x="1091" unicode="é"/><glyph d="M451 1413h243l213 -293h-190l-144 189l-141 -189h-192zM559 -23q-219 0 -350 142.5t-131 384.5q0 238 131 385t348 147q219 0 342 -161.5t113 -415.5h-750v-2q0 -147 81 -235.5t218 -88.5q86 0 163 48t105 145h166q-23 -154 -141.5 -251.5t-294.5 -97.5zM268 616h555 q-10 121 -79.5 193t-192.5 72q-121 0 -197 -73t-86 -192z" glyph-name="ecircumflex" horiz-adv-x="1091" unicode="ê"/><glyph d="M287 1161v228h211v-228h-211zM649 1161v228h213v-228h-213zM559 -23q-219 0 -350 142.5t-131 384.5q0 238 131 385t348 147q219 0 342 -161.5t113 -415.5h-750v-2q0 -147 81 -235.5t218 -88.5q86 0 163 48t105 145h166q-23 -154 -141.5 -251.5t-294.5 -97.5zM268 616h555 q-10 121 -79.5 193t-192.5 72q-121 0 -197 -73t-86 -192z" glyph-name="edieresis" horiz-adv-x="1091" unicode="ë"/><glyph d="M164 1161l-256 262h225l209 -262h-178zM139 0v1024h183v-1024h-183z" glyph-name="igrave" horiz-adv-x="618" unicode="ì"/><glyph d="M348 1161h-178l211 262h223zM139 0v1024h183v-1024h-183z" glyph-name="iacute" horiz-adv-x="618" unicode="í"/><glyph d="M127 1442h244l213 -293h-191l-143 188l-141 -188h-193zM139 0v1024h183v-1024h-183z" glyph-name="icircumflex" horiz-adv-x="618" unicode="î"/><glyph d="M-41 1182v227h211v-227h-211zM322 1182v227h213v-227h-213zM139 0v1024h183v-1024h-183z" glyph-name="idieresis" horiz-adv-x="618" unicode="ï"/><glyph d="M1217 1284v-154h-166v-1130h-170v156q-37 -70 -129.5 -124.5t-208.5 -54.5q-186 0 -325.5 144.5t-139.5 384t134 384t325 144.5q117 0 207 -49t137 -127v272h-179v154h179v150h170v-150h166zM567 143q141 0 228.5 99.5t87.5 255.5q0 164 -87 269t-229 105 q-135 0 -219 -100t-84 -258q0 -164 84 -267.5t219 -103.5z" glyph-name="eth" horiz-adv-x="1366" unicode="ð"/><glyph d="M745 1147q-121 0 -198 115q-29 49 -76 49q-66 0 -72 -86q0 -25 11 -62h-142q-4 18 -4 54q-2 102 54.5 166.5t146.5 64.5q125 0 199 -115q29 -49 77 -49q37 0 55.5 31t14.5 84q0 6 -3 16t-5 15h139q4 -20 4 -29q12 -111 -44.5 -182.5t-156.5 -71.5zM150 0v1024h176v-137 q39 63 121.5 113.5t193.5 50.5q154 0 268.5 -104.5t114.5 -317.5v-629h-186v614q0 133 -63.5 206t-168.5 73q-119 0 -199.5 -97.5t-80.5 -254.5v-541h-176z" glyph-name="ntilde" unicode="ñ"/><glyph d="M547 1161l-256 262h225l209 -262h-178zM565 -10q-211 0 -349 147.5t-138 374.5q0 231 138 378.5t349 147.5q213 0 349.5 -147.5t136.5 -378.5q0 -227 -138.5 -374.5t-347.5 -147.5zM563 154q141 0 227.5 100t86.5 256q0 162 -82 262t-230 100q-141 0 -225 -100t-84 -260 q0 -158 84 -258t223 -100z" glyph-name="ograve" horiz-adv-x="1128" unicode="ò"/><glyph d="M582 1165h-179l211 262h224zM565 -10q-211 0 -349 147.5t-138 374.5q0 231 138 378.5t349 147.5q213 0 349.5 -147.5t136.5 -378.5q0 -227 -138.5 -374.5t-347.5 -147.5zM563 154q141 0 227.5 100t86.5 256q0 162 -82 262t-230 100q-141 0 -225 -100t-84 -260 q0 -158 84 -258t223 -100z" glyph-name="oacute" horiz-adv-x="1128" unicode="ó"/><glyph d="M473 1427h244l213 -292h-191l-143 188l-141 -188h-193zM565 -10q-211 0 -349 147.5t-138 374.5q0 231 138 378.5t349 147.5q213 0 349.5 -147.5t136.5 -378.5q0 -227 -138.5 -374.5t-347.5 -147.5zM563 154q141 0 227.5 100t86.5 256q0 162 -82 262t-230 100 q-141 0 -225 -100t-84 -260q0 -158 84 -258t223 -100z" glyph-name="ocircumflex" horiz-adv-x="1128" unicode="ô"/><glyph d="M721 1124q-121 0 -199 115q-29 49 -76 49q-66 0 -71 -86q0 -25 10 -61h-141q-4 18 -4 53q-2 102 54 166.5t146 64.5q125 0 199 -114q29 -49 78 -49q37 0 55.5 30.5t13.5 83.5q0 4 -3 14.5t-5 16.5h140q4 -20 4 -29q12 -111 -44.5 -182.5t-156.5 -71.5zM565 -10 q-211 0 -349 147.5t-138 374.5q0 231 138 378.5t349 147.5q213 0 349.5 -147.5t136.5 -378.5q0 -227 -138.5 -374.5t-347.5 -147.5zM563 154q141 0 227.5 100t86.5 256q0 162 -82 262t-230 100q-141 0 -225 -100t-84 -260q0 -158 84 -258t223 -100z" glyph-name="otilde" horiz-adv-x="1128" unicode="õ"/><glyph d="M319 1163v228h211v-228h-211zM682 1163v228h213v-228h-213zM565 -10q-211 0 -349 147.5t-138 374.5q0 231 138 378.5t349 147.5q213 0 349.5 -147.5t136.5 -378.5q0 -227 -138.5 -374.5t-347.5 -147.5zM563 154q141 0 227.5 100t86.5 256q0 162 -82 262t-230 100 q-141 0 -225 -100t-84 -260q0 -158 84 -258t223 -100z" glyph-name="odieresis" horiz-adv-x="1128" unicode="ö"/><glyph d="M639 850v227h211v-227h-211zM197 516v146h1103v-146h-1103zM639 90v227h211v-227h-211z" glyph-name="divide" horiz-adv-x="1488" unicode="÷"/><glyph d="M1096 1024l-152 -168q106 -141 107 -344q0 -227 -138.5 -374.5t-347.5 -147.5q-176 0 -305 106l-86 -96h-164l166 184q-98 141 -98 328q0 231 138 378.5t349 147.5q168 0 293 -96l74 82h164zM256 512q0 -106 41 -193l448 498q-76 55 -180 55q-141 0 -225 -100t-84 -260z M877 510q0 125 -50 215l-454 -504q78 -68 190 -67q141 0 227.5 100t86.5 256z" glyph-name="oslash" horiz-adv-x="1169" unicode="ø"/><glyph d="M584 1165l-256 262h225l209 -262h-178zM522 -27q-154 0 -268.5 104.5t-114.5 317.5v629h187v-614q0 -129 64.5 -204t166.5 -75q123 0 202 96.5t79 255.5v541h176v-1024h-176v137q-41 -63 -124 -113.5t-192 -50.5z" glyph-name="ugrave" unicode="ù"/><glyph d="M649 1163h-178l211 262h223zM522 -27q-154 0 -268.5 104.5t-114.5 317.5v629h187v-614q0 -129 64.5 -204t166.5 -75q123 0 202 96.5t79 255.5v541h176v-1024h-176v137q-41 -63 -124 -113.5t-192 -50.5z" glyph-name="uacute" unicode="ú"/><glyph d="M487 1458h244l213 -293h-190l-144 189l-141 -189h-193zM522 -27q-154 0 -268.5 104.5t-114.5 317.5v629h187v-614q0 -129 64.5 -204t166.5 -75q123 0 202 96.5t79 255.5v541h176v-1024h-176v137q-41 -63 -124 -113.5t-192 -50.5z" glyph-name="ucircumflex" unicode="û"/><glyph d="M330 1206v228h211v-228h-211zM692 1206v228h213v-228h-213zM522 -27q-154 0 -268.5 104.5t-114.5 317.5v629h187v-614q0 -129 64.5 -204t166.5 -75q123 0 202 96.5t79 255.5v541h176v-1024h-176v137q-41 -63 -124 -113.5t-192 -50.5z" glyph-name="udieresis" unicode="ü"/><glyph d="M555 1163h-178l211 262h223zM82 -410l-2 162h84q135 0 192 146l62 163l-402 963h195l297 -745l285 745h194l-459 -1165q-51 -135 -134 -202t-218 -67h-94z" glyph-name="yacute" horiz-adv-x="1003" unicode="ý"/><glyph d="M129 -279v1631h168v-484q37 70 129 124.5t209 54.5q188 0 326.5 -144.5t138.5 -384t-134.5 -384t-324.5 -144.5q-117 0 -207 49t-137 127v-445h-168zM610 152q135 0 219 100t84 258q0 164 -84 267.5t-219 103.5q-141 0 -228 -99.5t-87 -255.5q0 -164 87 -269t228 -105z " glyph-name="thorn" horiz-adv-x="1167" unicode="þ"/><glyph d="M250 1171v228h211v-228h-211zM612 1171v228h213v-228h-213zM82 -410l-2 162h84q135 0 192 146l62 163l-402 963h195l297 -745l285 745h194l-459 -1165q-51 -135 -134 -202t-218 -67h-94z" glyph-name="ydieresis" horiz-adv-x="1003" unicode="ÿ"/><glyph d="M395 1577v143h635v-143h-635zM262 0l-205 2l549 1432h189l548 -1434h-204l-142 377h-594zM457 547h487l-244 667z" glyph-name="Amacron" horiz-adv-x="1400" unicode="Ā"/><glyph d="M248 1167v144h635v-144h-635zM424 -20q-143 0 -244.5 83.5t-101.5 225.5q0 143 94 219q96 76 279 92q70 6 105.5 11t89.5 19.5t80 42t26 66.5q0 68 -58.5 110t-146.5 42q-109 0 -172.5 -54.5t-75.5 -134.5l-184 -2q16 154 130.5 251.5t293.5 97.5q184 0 289.5 -97.5 t105.5 -251.5v-700h-182v137q-123 -157 -328 -157zM451 137q111 -4 205 65.5t96 203.5l2 120q-66 -47 -265 -63q-223 -20 -223 -164q0 -74 52.5 -116t132.5 -46z" glyph-name="amacron" horiz-adv-x="1062" unicode="ā"/><glyph d="M721 1520q-160 0 -254 98t-98 248h143q4 -92 57.5 -155.5t151.5 -61.5q98 0 152.5 63.5t56.5 153.5h143q-2 -147 -96 -246.5t-256 -99.5zM262 0l-205 2l549 1432h189l548 -1434h-204l-142 377h-594zM457 547h487l-244 667z" glyph-name="Abreve" horiz-adv-x="1400" unicode="Ă"/><glyph d="M565 1151q-160 0 -254 98.5t-98 247.5h143q4 -92 57.5 -155.5t151.5 -61.5q98 0 152.5 63.5t56.5 153.5h144q-2 -147 -96.5 -246.5t-256.5 -99.5zM424 -20q-143 0 -244.5 83.5t-101.5 225.5q0 143 94 219q96 76 279 92q70 6 105.5 11t89.5 19.5t80 42t26 66.5 q0 68 -58.5 110t-146.5 42q-109 0 -172.5 -54.5t-75.5 -134.5l-184 -2q16 154 130.5 251.5t293.5 97.5q184 0 289.5 -97.5t105.5 -251.5v-700h-182v137q-123 -157 -328 -157zM451 137q111 -4 205 65.5t96 203.5l2 120q-66 -47 -265 -63q-223 -20 -223 -164q0 -74 52.5 -116 t132.5 -46z" glyph-name="abreve" horiz-adv-x="1064" unicode="ă"/><glyph d="M1391 -311l75 -107q-123 -123 -301 -112q-113 4 -181.5 61t-68.5 162q0 199 238 307h-14l-142 377h-594l-141 -377l-205 2l549 1432h189l546 -1430l17 -4q-119 -14 -202 -102t-83 -185q0 -57 35 -91t94 -34q119 1 189 101zM457 547h487l-244 667z" glyph-name="Aogonek" horiz-adv-x="1228" unicode="Ą"/><glyph d="M991 -311l76 -107q-123 -123 -299 -112q-113 4 -182.5 61t-69.5 162q0 195 242 307h-6v137q-123 -158 -328 -157q-143 0 -244.5 83.5t-101.5 225.5q0 143 94 219q96 76 279 92q70 6 105.5 11t89.5 19.5t80 42t26 66.5q0 68 -58.5 110t-146.5 42q-109 0 -172.5 -54.5 t-75.5 -134.5l-184 -2q16 154 130.5 251.5t293.5 97.5q184 0 289.5 -97.5t105.5 -251.5v-692l24 -8q-119 -14 -200.5 -101t-81.5 -186q0 -57 33.5 -91t93.5 -34q118 1 188 101zM752 406l2 120q-66 -47 -265 -63q-223 -20 -223 -164q0 -74 52.5 -116t132.5 -46q111 -4 205 66 t96 203z" glyph-name="aogonek" horiz-adv-x="1196" unicode="ą"/><glyph d="M795 1524h-179l211 262h224zM756 -10q-283 0 -471.5 203.5t-186.5 517.5q2 324 189.5 529.5t478.5 205.5q246 0 408.5 -139.5t195.5 -354.5h-201q-27 133 -138 224.5t-269 91.5q-205 0 -334 -159t-129 -402q0 -233 127 -385t328 -152q162 0 275.5 94t139.5 225h201 q-35 -217 -200.5 -358t-413.5 -141z" glyph-name="Cacute" horiz-adv-x="1458" unicode="Ć"/><glyph d="M567 1143h-178l211 262h223zM553 -14q-207 0 -341 146.5t-134 379.5q0 236 135 384t348 148q170 0 292 -100t142 -258h-180q-18 88 -89 146.5t-169 58.5q-129 0 -211 -101.5t-82 -271.5t82 -271.5t211 -101.5q100 0 171 59.5t87 145.5h180q-23 -160 -145.5 -262 t-296.5 -102z" glyph-name="cacute" horiz-adv-x="1075" unicode="ć"/><glyph d="M653 1829h244l213 -293h-190l-144 188l-141 -188h-193zM756 -10q-283 0 -471.5 203.5t-186.5 517.5q2 324 189.5 529.5t478.5 205.5q246 0 408.5 -139.5t195.5 -354.5h-201q-27 133 -138 224.5t-269 91.5q-205 0 -334 -159t-129 -402q0 -233 127 -385t328 -152 q162 0 275.5 94t139.5 225h201q-35 -217 -200.5 -358t-413.5 -141z" glyph-name="Ccircumflex" horiz-adv-x="1458" unicode="Ĉ"/><glyph d="M461 1425h244l213 -292h-191l-143 188l-142 -188h-192zM553 -14q-207 0 -341 146.5t-134 379.5q0 236 135 384t348 148q170 0 292 -100t142 -258h-180q-18 88 -89 146.5t-169 58.5q-129 0 -211 -101.5t-82 -271.5t82 -271.5t211 -101.5q100 0 171 59.5t87 145.5h180 q-23 -160 -145.5 -262t-296.5 -102z" glyph-name="ccircumflex" horiz-adv-x="1075" unicode="ĉ"/><glyph d="M682 1559v227h211v-227h-211zM756 -10q-283 0 -471.5 203.5t-186.5 517.5q2 324 189.5 529.5t478.5 205.5q246 0 408.5 -139.5t195.5 -354.5h-201q-27 133 -138 224.5t-269 91.5q-205 0 -334 -159t-129 -402q0 -233 127 -385t328 -152q162 0 275.5 94t139.5 225h201 q-35 -217 -200.5 -358t-413.5 -141z" glyph-name="Cdotaccent" horiz-adv-x="1458" unicode="Ċ"/><glyph d="M471 1159v227h211v-227h-211zM553 -14q-207 0 -341 146.5t-134 379.5q0 236 135 384t348 148q170 0 292 -100t142 -258h-180q-18 88 -89 146.5t-169 58.5q-129 0 -211 -101.5t-82 -271.5t82 -271.5t211 -101.5q100 0 171 59.5t87 145.5h180q-23 -160 -145.5 -262 t-296.5 -102z" glyph-name="cdotaccent" horiz-adv-x="1075" unicode="ċ"/><glyph d="M455 1847h186l147 -188l150 188h184l-213 -293h-243zM756 -10q-283 0 -471.5 203.5t-186.5 517.5q2 324 189.5 529.5t478.5 205.5q246 0 408.5 -139.5t195.5 -354.5h-201q-27 133 -138 224.5t-269 91.5q-205 0 -334 -159t-129 -402q0 -233 127 -385t328 -152 q162 0 275.5 94t139.5 225h201q-35 -217 -200.5 -358t-413.5 -141z" glyph-name="Ccaron" horiz-adv-x="1458" unicode="Č"/><glyph d="M258 1442h186l148 -189l149 189h185l-213 -293h-244zM553 -14q-207 0 -341 146.5t-134 379.5q0 236 135 384t348 148q170 0 292 -100t142 -258h-180q-18 88 -89 146.5t-169 58.5q-129 0 -211 -101.5t-82 -271.5t82 -271.5t211 -101.5q100 0 171 59.5t87 145.5h180 q-23 -160 -145.5 -262t-296.5 -102z" glyph-name="ccaron" horiz-adv-x="1075" unicode="č"/><glyph d="M385 1823h186l148 -189l149 189h185l-213 -293h-244zM170 -4v1438l518 4q293 2 479.5 -197t186.5 -514q0 -319 -180.5 -522t-464.5 -205zM344 172l336 4q219 2 356.5 151.5t137.5 391.5q0 244 -135.5 393.5t-350.5 144.5l-344 -4v-1081z" glyph-name="Dcaron" horiz-adv-x="1452" unicode="Ď"/><glyph d="M881 1434h170v-1434h-170v156q-37 -70 -129.5 -124.5t-208.5 -54.5q-186 0 -325.5 144.5t-139.5 384t134 384t325 144.5q117 0 207 -49t137 -127v541l-189 -260h-243l-211 293h186l147 -189l150 189h160v2zM567 143q141 0 228.5 99.5t87.5 255.5q0 164 -87 269t-229 105 q-135 0 -219 -100t-84 -258q0 -164 84 -267.5t219 -103.5z" glyph-name="dcaron" horiz-adv-x="1200" unicode="ď"/><glyph d="M772 1438q293 2 479.5 -197t186.5 -514q0 -319 -180.5 -522t-464.5 -205l-539 -4v645h-115v154h115v639zM764 176q219 2 356 151.5t137 391.5q0 244 -135 393.5t-350 144.5l-344 -4v-458h381v-154h-381v-469z" glyph-name="Dcroat" horiz-adv-x="1615" unicode="Đ"/><glyph d="M328 1585v144h635v-144h-635zM170 0v1434h915v-174h-737v-449h694v-170h-694v-467h737v-174h-915z" glyph-name="Emacron" unicode="Ē"/><glyph d="M260 1159v144h635v-144h-635zM559 -23q-219 0 -350 142.5t-131 384.5q0 238 131 385t348 147q219 0 342 -161.5t113 -415.5h-750v-2q0 -147 81 -235.5t218 -88.5q86 0 163 48t105 145h166q-23 -154 -141.5 -251.5t-294.5 -97.5zM268 616h555q-10 121 -79.5 193t-192.5 72 q-121 0 -197 -73t-86 -192z" glyph-name="emacron" horiz-adv-x="1091" unicode="ē"/><glyph d="M649 1516q-160 0 -254 98t-98 248h143q4 -92 57.5 -156t151.5 -61q98 0 152.5 63.5t56.5 153.5h143q-2 -147 -96 -246.5t-256 -99.5zM170 0v1434h915v-174h-737v-449h694v-170h-694v-467h737v-174h-915z" glyph-name="Ebreve" unicode="Ĕ"/><glyph d="M592 1106q-160 0 -254 98.5t-98 247.5h143q4 -92 57.5 -155.5t151.5 -61.5q98 0 152.5 63.5t56.5 153.5h143q-2 -147 -96 -246.5t-256 -99.5zM559 -23q-219 0 -350 142.5t-131 384.5q0 238 131 385t348 147q219 0 342 -161.5t113 -415.5h-750v-2q0 -147 81 -235.5 t218 -88.5q86 0 163 48t105 145h166q-23 -154 -141.5 -251.5t-294.5 -97.5zM268 616h555q-10 121 -79.5 193t-192.5 72q-121 0 -197 -73t-86 -192z" glyph-name="ebreve" horiz-adv-x="1091" unicode="ĕ"/><glyph d="M551 1573v227h211v-227h-211zM170 0v1434h915v-174h-737v-449h694v-170h-694v-467h737v-174h-915z" glyph-name="Edotaccent" unicode="Ė"/><glyph d="M479 1153v227h211v-227h-211zM559 -23q-219 0 -350 142.5t-131 384.5q0 238 131 385t348 147q219 0 342 -161.5t113 -415.5h-750v-2q0 -147 81 -235.5t218 -88.5q86 0 163 48t105 145h166q-23 -154 -141.5 -251.5t-294.5 -97.5zM268 616h555q-10 121 -79.5 193t-192.5 72 q-121 0 -197 -73t-86 -192z" glyph-name="edotaccent" horiz-adv-x="1091" unicode="ė"/><glyph d="M1143 -311l76 -107q-123 -123 -299 -112q-113 4 -182.5 61t-69.5 162q0 195 241 307h-739v1434h915v-174h-737v-449h694v-170h-694v-467h737v-166l25 -8q-119 -14 -201 -101t-82 -186q0 -57 34 -91t93 -34q119 1 189 101z" glyph-name="Eogonek" horiz-adv-x="1228" unicode="Ę"/><glyph d="M1012 459h-750v-2q0 -147 81 -235.5t218 -88.5q86 0 163 48t105 145h166q-20 -139 -120.5 -233.5t-251.5 -110.5q-90 -35 -148.5 -112t-58.5 -157q0 -57 33.5 -91t93.5 -34q119 0 188 101l76 -107q-123 -123 -299 -112q-113 4 -182.5 61t-69.5 162q0 178 211 293 q-180 29 -284.5 166t-104.5 352q0 238 131 385t348 147q219 0 342 -161.5t113 -415.5zM551 881q-121 0 -196.5 -73t-86.5 -192h555q-10 121 -79.5 193t-192.5 72z" glyph-name="eogonek" horiz-adv-x="1091" unicode="ę"/><glyph d="M324 1839h186l147 -188l150 188h184l-213 -293h-243zM170 0v1434h915v-174h-737v-449h694v-170h-694v-467h737v-174h-915z" glyph-name="Ecaron" unicode="Ě"/><glyph d="M252 1423h186l148 -188l149 188h185l-213 -293h-244zM559 -23q-219 0 -350 142.5t-131 384.5q0 238 131 385t348 147q219 0 342 -161.5t113 -415.5h-750v-2q0 -147 81 -235.5t218 -88.5q86 0 163 48t105 145h166q-23 -154 -141.5 -251.5t-294.5 -97.5zM268 616h555 q-10 121 -79.5 193t-192.5 72q-121 0 -197 -73t-86 -192z" glyph-name="ecaron" horiz-adv-x="1091" unicode="ě"/><glyph d="M666 1829h243l213 -293h-190l-144 188l-141 -188h-192zM758 -10q-283 0 -472.5 203.5t-187.5 517.5q2 322 192.5 529.5t483.5 207.5q244 0 411 -140.5t197 -355.5h-200q-25 133 -139.5 226.5t-272.5 93.5q-207 0 -340 -161t-133 -404q0 -233 131 -387t334 -154 q154 2 284 99t158 288h-426v174l608 -2v-725h-161l-8 236q-72 -121 -196 -183.5t-263 -62.5z" glyph-name="Gcircumflex" horiz-adv-x="1546" unicode="Ĝ"/><glyph d="M467 1444h244l213 -293h-191l-143 188l-141 -188h-193zM561 -426q-195 0 -317.5 102.5t-130.5 253.5l176 -2q20 -111 106 -154.5t170 -43.5q147 0 237.5 88t90.5 266v111q-47 -92 -147.5 -148.5t-215.5 -56.5q-207 0 -329.5 147.5t-122.5 380.5q0 229 129 379t330 150 q111 0 209 -55.5t147 -145.5v178h172v-940q0 -252 -137.5 -381t-366.5 -129zM569 152q141 0 228.5 105t87.5 269q0 156 -87 255.5t-229 99.5q-135 0 -219 -103.5t-84 -267.5q0 -158 84 -258t219 -100z" glyph-name="gcircumflex" horiz-adv-x="1204" unicode="ĝ"/><glyph d="M780 1536q-160 0 -254 98.5t-98 247.5h143q4 -92 57.5 -155.5t151.5 -61.5q98 0 152.5 63.5t56.5 153.5h144q-2 -147 -96.5 -246.5t-256.5 -99.5zM758 -10q-283 0 -472.5 203.5t-187.5 517.5q2 322 192.5 529.5t483.5 207.5q244 0 411 -140.5t197 -355.5h-200 q-25 133 -139.5 226.5t-272.5 93.5q-207 0 -340 -161t-133 -404q0 -233 131 -387t334 -154q154 2 284 99t158 288h-426v174l608 -2v-725h-161l-8 236q-72 -121 -196 -183.5t-263 -62.5z" glyph-name="Gbreve" horiz-adv-x="1546" unicode="Ğ"/><glyph d="M608 1124q-160 0 -254 98.5t-98 247.5h143q4 -92 57.5 -155.5t151.5 -61.5q98 0 152.5 63.5t56.5 153.5h144q-2 -147 -96.5 -246.5t-256.5 -99.5zM561 -426q-195 0 -317.5 102.5t-130.5 253.5l176 -2q20 -111 106 -154.5t170 -43.5q147 0 237.5 88t90.5 266v111 q-47 -92 -147.5 -148.5t-215.5 -56.5q-207 0 -329.5 147.5t-122.5 380.5q0 229 129 379t330 150q111 0 209 -55.5t147 -145.5v178h172v-940q0 -252 -137.5 -381t-366.5 -129zM569 152q141 0 228.5 105t87.5 269q0 156 -87 255.5t-229 99.5q-135 0 -219 -103.5t-84 -267.5 q0 -158 84 -258t219 -100z" glyph-name="gbreve" horiz-adv-x="1204" unicode="ğ"/><glyph d="M686 1573v227h211v-227h-211zM758 -10q-283 0 -472.5 203.5t-187.5 517.5q2 322 192.5 529.5t483.5 207.5q244 0 411 -140.5t197 -355.5h-200q-25 133 -139.5 226.5t-272.5 93.5q-207 0 -340 -161t-133 -404q0 -233 131 -387t334 -154q154 2 284 99t158 288h-426v174 l608 -2v-725h-161l-8 236q-72 -121 -196 -183.5t-263 -62.5z" glyph-name="Gdotaccent" horiz-adv-x="1546" unicode="Ġ"/><glyph d="M502 1184v227h211v-227h-211zM561 -426q-195 0 -317.5 102.5t-130.5 253.5l176 -2q20 -111 106 -154.5t170 -43.5q147 0 237.5 88t90.5 266v111q-47 -92 -147.5 -148.5t-215.5 -56.5q-207 0 -329.5 147.5t-122.5 380.5q0 229 129 379t330 150q111 0 209 -55.5t147 -145.5 v178h172v-940q0 -252 -137.5 -381t-366.5 -129zM569 152q141 0 228.5 105t87.5 269q0 156 -87 255.5t-229 99.5q-135 0 -219 -103.5t-84 -267.5q0 -158 84 -258t219 -100z" glyph-name="gdotaccent" horiz-adv-x="1204" unicode="ġ"/><glyph d="M758 -10q-283 0 -472.5 203.5t-187.5 517.5q2 322 192.5 529.5t483.5 207.5q244 0 411 -140.5t197 -355.5h-200q-25 133 -139.5 226.5t-272.5 93.5q-207 0 -340 -161t-133 -404q0 -233 131 -387t334 -154q154 2 284 99t158 288h-426v174l608 -2v-725h-161l-8 236 q-72 -121 -196 -183.5t-263 -62.5zM721 -569v106q104 4 98 115h-108v227h213l-2 -227q2 -109 -53.5 -165t-147.5 -56z" glyph-name="Gcommaaccent" horiz-adv-x="1546" unicode="Ģ"/><glyph d="M551 1137v106q104 4 98 115h-108v227h213l-2 -227q2 -109 -53.5 -165t-147.5 -56zM561 -426q-195 0 -317.5 102.5t-130.5 253.5l176 -2q20 -111 106 -154.5t170 -43.5q147 0 237.5 88t90.5 266v111q-47 -92 -147.5 -148.5t-215.5 -56.5q-207 0 -329.5 147.5t-122.5 380.5 q0 229 129 379t330 150q111 0 209 -55.5t147 -145.5v178h172v-940q0 -252 -137.5 -381t-366.5 -129zM569 152q141 0 228.5 105t87.5 269q0 156 -87 255.5t-229 99.5q-135 0 -219 -103.5t-84 -267.5q0 -158 84 -258t219 -100z" glyph-name="gcommaaccent" horiz-adv-x="1204" unicode="ģ"/><glyph d="M625 1821h243l213 -293h-190l-143 188l-142 -188h-192zM170 0v1434h190v-621h723v621h191v-1434h-191v651h-723v-651h-190z" glyph-name="Hcircumflex" horiz-adv-x="1443" unicode="Ĥ"/><glyph d="M641 1051q154 0 268.5 -104.5t114.5 -317.5v-629h-186v614q-2 131 -65.5 205t-166.5 74q-123 0 -201.5 -96.5t-78.5 -255.5v-541h-176v1434h116l193 266h243l213 -293h-190l-143 188l-142 -188h-114v-520q39 63 121.5 113.5t193.5 50.5z" glyph-name="hcircumflex" unicode="ĥ"/><glyph d="M1391 1214v-159h-117v-1055h-191v651h-723v-651h-190v1055h-66v159h66v220h190v-220h723v220h191v-220h117zM1083 813v242h-723v-242h723z" glyph-name="Hbar" horiz-adv-x="1552" unicode="Ħ"/><glyph d="M762 1051q154 0 268.5 -104.5t114.5 -317.5v-629h-187v614q-2 131 -65.5 205t-165.5 74q-123 0 -202 -96.5t-79 -255.5v-541h-176v1159h-120v137h120v138h176v-138h232v-137h-232v-272q39 63 122 113.5t194 50.5z" glyph-name="hbar" horiz-adv-x="1284" unicode="ħ"/><glyph d="M428 1507q-121 0 -199 115q-29 49 -75 49q-66 0 -72 -86q0 -25 10 -61h-141q-4 18 -4 53q-2 102 54 166.5t146 64.5q125 0 199 -114q29 -49 78 -49q37 0 55.5 30.5t14.5 83.5q0 6 -3.5 16.5t-5.5 14.5h140q4 -20 4 -29q12 -111 -44.5 -182.5t-156.5 -71.5zM180 0v1434 h187v-1434h-187z" glyph-name="Itilde" horiz-adv-x="811" unicode="Ĩ"/><glyph d="M389 1126q-121 0 -199 115q-29 49 -75 49q-66 0 -72 -86q0 -25 10 -61h-141q-4 18 -4 53q-2 102 54 166.5t147 64.5q125 0 198 -114q29 -49 78 -49q37 0 55.5 30.5t14.5 83.5q0 6 -4.5 15.5t-4.5 15.5h140q4 -20 4 -29q12 -111 -44.5 -182.5t-156.5 -71.5zM139 0v1024 h183v-1024h-183z" glyph-name="itilde" horiz-adv-x="598" unicode="ĩ"/><glyph d="M-25 1571v143h635v-143h-635zM180 0v1434h187v-1434h-187z" glyph-name="Imacron" horiz-adv-x="790" unicode="Ī"/><glyph d="M-59 1208v144h634v-144h-634zM139 0v1024h183v-1024h-183z" glyph-name="imacron" horiz-adv-x="598" unicode="ī"/><glyph d="M301 1538q-160 0 -254 98.5t-98 247.5h143q4 -92 57.5 -155.5t151.5 -61.5q98 0 152.5 63.5t56.5 153.5h143q-2 -147 -96 -246.5t-256 -99.5zM180 0v1434h187v-1434h-187z" glyph-name="Ibreve" horiz-adv-x="833" unicode="Ĭ"/><glyph d="M260 1151q-160 0 -254 98.5t-98 247.5h143q4 -92 57.5 -155.5t151.5 -61.5q98 0 152.5 63.5t56.5 153.5h143q-2 -147 -96 -246.5t-256 -99.5zM139 0v1024h183v-1024h-183z" glyph-name="ibreve" horiz-adv-x="665" unicode="ĭ"/><glyph d="M420 -311l76 -107q-123 -123 -299 -112q-113 4 -182.5 61t-69.5 162q0 195 241 307h-6v1434h187v-1428l20 -6q-119 -14 -201 -101t-82 -186q0 -57 34 -91t93 -34q119 1 189 101z" glyph-name="Iogonek" horiz-adv-x="675" unicode="Į"/><glyph d="M338 1434v-217h-199v217h199zM446 -266l74 -105q-119 -121 -299 -114q-113 4 -182.5 62t-69.5 163q0 164 185 260h-7v1024h185v-1016l22 -8q-102 -14 -163.5 -87t-61.5 -155q0 -55 34 -90t93 -35q118 1 190 101z" glyph-name="iogonek" horiz-adv-x="618" unicode="į"/><glyph d="M193 1540v227h210v-227h-210zM180 0v1434h187v-1434h-187z" glyph-name="Idotaccent" horiz-adv-x="552" unicode="İ"/><glyph d="M139 0v1024h183v-1024h-183z" glyph-name="dotlessi" horiz-adv-x="460" unicode="ı"/><glyph d="M707 1798h243l213 -293h-190l-144 189l-141 -189h-192zM471 -16q-193 0 -312.5 117.5t-121.5 314.5v110h174v-106q2 -121 73.5 -193.5t186.5 -72.5t183.5 77.5t68.5 212.5v990h184v-994q0 -211 -123 -333.5t-313 -122.5z" glyph-name="Jcircumflex" horiz-adv-x="1312" unicode="Ĵ"/><glyph d="M205 1393h244l213 -293h-191l-143 188l-142 -188h-192zM63 -362v167h43q63 0 101.5 39t38.5 117v1063h176v-1087q0 -139 -81 -219t-212 -80h-66z" glyph-name="jcircumflex" horiz-adv-x="632" unicode="ĵ"/><glyph d="M170 0v1434h174v-721l664 721h225l-592 -643l610 -791h-231l-504 659l-172 -188v-471h-174zM573 -569v106q104 4 99 115h-109v227h213l-2 -227q2 -109 -53.5 -165t-147.5 -56z" glyph-name="Kcommaaccent" horiz-adv-x="1277" unicode="Ķ"/><glyph d="M150 0v1434h174v-859l424 449h217l-381 -403l422 -619l-201 -2l-336 492l-145 -152v-340h-174zM438 -569v106q104 4 99 115h-109v227h213l-2 -227q2 -109 -53.5 -165t-147.5 -56z" glyph-name="kcommaaccent" horiz-adv-x="1042" unicode="ķ"/><glyph d="M383 1513h-178l211 263h223zM170 0v1434h188v-1256h646v-178h-834z" glyph-name="Lacute" horiz-adv-x="1050" unicode="Ĺ"/><glyph d="M354 1509h-178l211 263h223zM150 0v1434h182v-1434h-182z" glyph-name="lacute" horiz-adv-x="759" unicode="ĺ"/><glyph d="M170 0v1434h188v-1256h646v-178h-834zM504 -569v106q104 4 98 115h-108v227h213l-2 -227q2 -109 -53.5 -165t-147.5 -56z" glyph-name="Lcommaaccent" horiz-adv-x="1050" unicode="Ļ"/><glyph d="M150 0v1434h182v-1434h-182zM168 -596v107q104 4 98 114h-108v228h213l-2 -228q2 -109 -53.5 -165t-147.5 -56z" glyph-name="lcommaaccent" horiz-adv-x="559" unicode="ļ"/><glyph d="M-49 1812h186l148 -188l149 188h184l-212 -292h-244zM170 0v1434h188v-1256h646v-178h-834z" glyph-name="Lcaron" horiz-adv-x="1050" unicode="Ľ"/><glyph d="M-70 1808h187l147 -188l150 188h184l-213 -292h-244zM150 0v1434h182v-1434h-182z" glyph-name="lcaron" horiz-adv-x="747" unicode="ľ"/><glyph d="M182 1538v227h213v-227h-213zM170 0v1434h188v-1256h646v-178h-834z" glyph-name="Ldot" horiz-adv-x="1050" unicode="Ŀ"/><glyph d="M160 1507v228h213v-228h-213zM150 0v1434h182v-1434h-182z" glyph-name="ldot" horiz-adv-x="522" unicode="ŀ"/><glyph d="M358 178h646v-178h-834v592l-168 -84v160l168 84v682h188v-586l306 153v-159l-306 -154v-510z" glyph-name="Lslash" horiz-adv-x="1075" unicode="Ł"/><glyph d="M504 1022v-158l-172 -69v-795h-182v719l-123 -49v157l123 50v557h182v-482z" glyph-name="lslash" horiz-adv-x="559" unicode="ł"/><glyph d="M768 1485h-178l211 262h223zM1063 0l-719 1161v-1161h-174v1434h219l731 -1184v1184h174v-1436z" glyph-name="Nacute" horiz-adv-x="1464" unicode="Ń"/><glyph d="M604 1159h-178l211 262h223zM150 0v1024h176v-137q39 63 121.5 113.5t193.5 50.5q154 0 268.5 -104.5t114.5 -317.5v-629h-186v614q0 133 -63.5 206t-168.5 73q-119 0 -199.5 -97.5t-80.5 -254.5v-541h-176z" glyph-name="nacute" unicode="ń"/><glyph d="M1063 0l-719 1161v-1161h-174v1434h219l731 -1184v1184h174v-1436zM653 -569v106q104 4 99 115h-109v227h213l-2 -227q2 -109 -53.5 -165t-147.5 -56z" glyph-name="Ncommaaccent" horiz-adv-x="1464" unicode="Ņ"/><glyph d="M150 0v1024h176v-137q39 63 121.5 113.5t193.5 50.5q154 0 268.5 -104.5t114.5 -317.5v-629h-186v614q0 133 -63.5 206t-168.5 73q-119 0 -199.5 -97.5t-80.5 -254.5v-541h-176zM510 -555v106q104 4 98 115h-108v228h213l-2 -228q2 -109 -53.5 -165t-147.5 -56z" glyph-name="ncommaaccent" unicode="ņ"/><glyph d="M420 1806h186l148 -188l149 188h184l-213 -293h-243zM1063 0l-719 1161v-1161h-174v1434h219l731 -1184v1184h174v-1436z" glyph-name="Ncaron" horiz-adv-x="1464" unicode="Ň"/><glyph d="M274 1446h187l147 -189l150 189h184l-213 -293h-244zM150 0v1024h176v-137q39 63 121.5 113.5t193.5 50.5q154 0 268.5 -104.5t114.5 -317.5v-629h-186v614q0 133 -63.5 206t-168.5 73q-119 0 -199.5 -97.5t-80.5 -254.5v-541h-176z" glyph-name="ncaron" unicode="ň"/><glyph d="M1294 0h25q-6 -406 -389 -406v164q68 0 127 37t57 109q0 41 -27 96h-24l-719 1161v-1161h-174v1434h219l731 -1184v1184h174v-1434z" glyph-name="Eng" horiz-adv-x="1488" unicode="Ŋ"/><glyph d="M1024 0h25q-2 -283 -252 -283v119q141 0 135 164h-94v614q0 133 -63.5 206t-168.5 73q-119 0 -199.5 -97.5t-80.5 -254.5v-541h-176v1024h176v-137q39 63 121.5 113.5t193.5 50.5q154 0 268.5 -104.5t114.5 -317.5v-629z" glyph-name="eng" horiz-adv-x="1187" unicode="ŋ"/><glyph d="M471 1579v143h635v-143h-635zM770 -20q-285 0 -478.5 211.5t-193.5 525.5q0 317 191.5 525t480.5 208t480.5 -209t191.5 -528q0 -313 -193.5 -523t-478.5 -210zM768 158q213 0 350 156.5t137 392.5q0 246 -136 407.5t-349 161.5t-347 -161t-134 -404q0 -238 135 -395.5 t344 -157.5z" glyph-name="Omacron" horiz-adv-x="1540" unicode="Ō"/><glyph d="M268 1157v143h635v-143h-635zM565 -10q-211 0 -349 147.5t-138 374.5q0 231 138 378.5t349 147.5q213 0 349.5 -147.5t136.5 -378.5q0 -227 -138.5 -374.5t-347.5 -147.5zM563 154q141 0 227.5 100t86.5 256q0 162 -82 262t-230 100q-141 0 -225 -100t-84 -260 q0 -158 84 -258t223 -100z" glyph-name="omacron" horiz-adv-x="1128" unicode="ō"/><glyph d="M780 1518q-160 0 -254 98t-98 248h143q4 -92 57.5 -155.5t151.5 -61.5q98 0 152.5 63.5t56.5 153.5h144q-2 -147 -96.5 -246.5t-256.5 -99.5zM770 -20q-285 0 -478.5 211.5t-193.5 525.5q0 317 191.5 525t480.5 208t480.5 -209t191.5 -528q0 -313 -193.5 -523 t-478.5 -210zM768 158q213 0 350 156.5t137 392.5q0 246 -136 407.5t-349 161.5t-347 -161t-134 -404q0 -238 135 -395.5t344 -157.5z" glyph-name="Obreve" horiz-adv-x="1540" unicode="Ŏ"/><glyph d="M590 1120q-160 0 -254 98.5t-98 247.5h143q4 -92 57.5 -155.5t151.5 -61.5q98 0 152.5 63.5t56.5 153.5h143q-2 -147 -96 -246.5t-256 -99.5zM565 -10q-211 0 -349 147.5t-138 374.5q0 231 138 378.5t349 147.5q213 0 349.5 -147.5t136.5 -378.5q0 -227 -138.5 -374.5 t-347.5 -147.5zM563 154q141 0 227.5 100t86.5 256q0 162 -82 262t-230 100q-141 0 -225 -100t-84 -260q0 -158 84 -258t223 -100z" glyph-name="obreve" horiz-adv-x="1128" unicode="ŏ"/><glyph d="M500 1552v228h211v-228h-211zM862 1552v228h213v-228h-213zM770 -20q-285 0 -478.5 211.5t-193.5 525.5q0 317 191.5 525t480.5 208t480.5 -209t191.5 -528q0 -313 -193.5 -523t-478.5 -210zM768 158q213 0 350 156.5t137 392.5q0 246 -136 407.5t-349 161.5t-347 -161 t-134 -404q0 -238 135 -395.5t344 -157.5z" glyph-name="Ohungarumlaut" horiz-adv-x="1540" unicode="Ő"/><glyph d="M307 1141v227h211v-227h-211zM670 1141v227h213v-227h-213zM565 -10q-211 0 -349 147.5t-138 374.5q0 231 138 378.5t349 147.5q213 0 349.5 -147.5t136.5 -378.5q0 -227 -138.5 -374.5t-347.5 -147.5zM563 154q141 0 227.5 100t86.5 256q0 162 -82 262t-230 100 q-141 0 -225 -100t-84 -260q0 -158 84 -258t223 -100z" glyph-name="ohungarumlaut" horiz-adv-x="1128" unicode="ő"/><glyph d="M2195 1260h-737v-449h694v-170h-694v-467h737v-174h-915v225q-199 -246 -510 -245q-285 0 -478.5 211.5t-193.5 525.5q0 317 191.5 525t480.5 208q315 0 510 -244v228h915v-174zM768 158q213 0 350 156.5t137 392.5q0 246 -136 407.5t-349 161.5t-347 -161t-134 -404 q0 -238 135 -395.5t344 -157.5z" glyph-name="OE" horiz-adv-x="2273" unicode="Œ"/><glyph d="M1855 459h-751v-2q0 -147 82 -235.5t219 -88.5q86 0 163 48t103 145h168q-23 -154 -141.5 -251.5t-294.5 -97.5q-145 0 -255 66t-169 186q-63 -113 -172 -176t-242 -63q-211 0 -349 147.5t-138 374.5q0 231 138 378.5t349 147.5q137 0 248 -65.5t172 -179.5 q57 117 163.5 180t250.5 63q225 0 345.5 -160.5t110.5 -416.5zM1395 881q-121 0 -198 -73t-87 -192h557q-10 121 -80.5 193t-191.5 72zM563 154q141 0 227.5 100t86.5 256q0 162 -82 262t-230 100q-141 0 -225 -100t-84 -260q0 -158 84 -258t223 -100z" glyph-name="oe" horiz-adv-x="1933" unicode="œ"/><glyph d="M649 1575h-178l211 262h223zM170 -2v1436l590 2q193 0 306.5 -107.5t113.5 -281.5q0 -121 -64.5 -215.5t-157.5 -124.5q100 -31 140.5 -112t52.5 -230q2 -41 7 -110t7 -89.5t7.5 -57t14.5 -59t23 -49.5h-204q-8 23 -14.5 43t-10.5 52t-5 53.5t-5 77t-6 87.5 q-4 72 -9.5 109t-21.5 85t-45 70.5t-80 40t-127 17.5h-332v-637h-180zM350 795h375q123 0 201 63.5t78 175.5q0 121 -74 182.5t-205 61.5h-375v-483z" glyph-name="Racute" horiz-adv-x="1253" unicode="Ŕ"/><glyph d="M352 1092h-178l211 262h223zM150 0v1024h172v-133q16 33 42.5 62.5t98.5 59t168 27.5h28v-178l-20 -2q-317 8 -317 -305v-555h-172z" glyph-name="racute" horiz-adv-x="684" unicode="ŕ"/><glyph d="M170 -2v1436l590 2q193 0 306.5 -107.5t113.5 -281.5q0 -121 -64.5 -215.5t-157.5 -124.5q100 -31 140.5 -112t52.5 -230q2 -41 7 -110t7 -89.5t7.5 -57t14.5 -59t23 -49.5h-204q-8 23 -14.5 43t-10.5 52t-5 53.5t-5 77t-6 87.5q-4 72 -9.5 109t-21.5 85t-45 70.5t-80 40 t-127 17.5h-332v-637h-180zM350 795h375q123 0 201 63.5t78 175.5q0 121 -74 182.5t-205 61.5h-375v-483zM594 -549v107q104 4 98 114h-108v228h213l-2 -228q2 -109 -53.5 -165t-147.5 -56z" glyph-name="Rcommaaccent" horiz-adv-x="1253" unicode="Ŗ"/><glyph d="M150 0v1024h172v-133q16 33 42.5 62.5t98.5 59t168 27.5h28v-178l-20 -2q-317 8 -317 -305v-555h-172zM160 -569v106q104 4 98 115h-108v227h212l-2 -227q2 -109 -53 -165t-147 -56z" glyph-name="rcommaaccent" horiz-adv-x="684" unicode="ŗ"/><glyph d="M324 1845h186l147 -188l150 188h184l-213 -293h-243zM170 -2v1436l590 2q193 0 306.5 -107.5t113.5 -281.5q0 -121 -64.5 -215.5t-157.5 -124.5q100 -31 140.5 -112t52.5 -230q2 -41 7 -110t7 -89.5t7.5 -57t14.5 -59t23 -49.5h-204q-8 23 -14.5 43t-10.5 52t-5 53.5 t-5 77t-6 87.5q-4 72 -9.5 109t-21.5 85t-45 70.5t-80 40t-127 17.5h-332v-637h-180zM350 795h375q123 0 201 63.5t78 175.5q0 121 -74 182.5t-205 61.5h-375v-483z" glyph-name="Rcaron" horiz-adv-x="1253" unicode="Ř"/><glyph d="M135 1442h187l147 -189l149 189h185l-213 -293h-244zM150 0v1024h172v-133q16 33 42.5 62.5t98.5 59t168 27.5h28v-178l-20 -2q-317 8 -317 -305v-555h-172z" glyph-name="rcaron" horiz-adv-x="829" unicode="ř"/><glyph d="M698 1538h-178l211 262h223zM668 -14q-229 0 -396.5 118.5t-183.5 337.5h205q23 -135 122 -209.5t261 -74.5q145 0 228 70.5t83 177.5q0 98 -70.5 153t-238.5 80q-551 72 -551 405q0 168 141.5 285t349.5 117q246 0 390.5 -122t150.5 -333h-192q-8 133 -102.5 206 t-243.5 73q-129 0 -210 -65.5t-81 -153.5q0 -184 336 -234q287 -39 405.5 -141.5t118.5 -274.5q0 -188 -144.5 -301.5t-377.5 -113.5z" glyph-name="Sacute" horiz-adv-x="1277" unicode="Ś"/><glyph d="M506 1139h-178l211 262h223zM500 -23q-178 0 -301 91.5t-131 259.5h172q14 -96 84.5 -147.5t175.5 -51.5q102 0 155.5 48t53.5 120q0 61 -49.5 99t-167.5 57q-221 33 -307.5 110.5t-86.5 190.5q0 119 103.5 203.5t263.5 84.5q166 0 280.5 -87t122.5 -261h-166 q-20 195 -233 195q-80 0 -137.5 -38t-57.5 -99q0 -117 217.5 -148t308.5 -104.5t91 -202.5q0 -141 -112.5 -230.5t-278.5 -89.5z" glyph-name="sacute" horiz-adv-x="958" unicode="ś"/><glyph d="M551 1806h244l213 -293h-191l-143 189l-142 -189h-192zM668 -14q-229 0 -396.5 118.5t-183.5 337.5h205q23 -135 122 -209.5t261 -74.5q145 0 228 70.5t83 177.5q0 98 -70.5 153t-238.5 80q-551 72 -551 405q0 168 141.5 285t349.5 117q246 0 390.5 -122t150.5 -333h-192 q-8 133 -102.5 206t-243.5 73q-129 0 -210 -65.5t-81 -153.5q0 -184 336 -234q287 -39 405.5 -141.5t118.5 -274.5q0 -188 -144.5 -301.5t-377.5 -113.5z" glyph-name="Scircumflex" horiz-adv-x="1277" unicode="Ŝ"/><glyph d="M383 1423h244l213 -293h-191l-143 189l-141 -189h-193zM500 -23q-178 0 -301 91.5t-131 259.5h172q14 -96 84.5 -147.5t175.5 -51.5q102 0 155.5 48t53.5 120q0 61 -49.5 99t-167.5 57q-221 33 -307.5 110.5t-86.5 190.5q0 119 103.5 203.5t263.5 84.5q166 0 280.5 -87 t122.5 -261h-166q-20 195 -233 195q-80 0 -137.5 -38t-57.5 -99q0 -117 217.5 -148t308.5 -104.5t91 -202.5q0 -141 -112.5 -230.5t-278.5 -89.5z" glyph-name="scircumflex" horiz-adv-x="958" unicode="ŝ"/><glyph d="M1190 401q0 -180 -133 -292.5t-348 -122.5l-39 -74q35 8 71 4q80 -6 129.5 -58.5t49.5 -131.5q0 -90 -62.5 -152.5t-152.5 -62.5q-72 0 -141.5 40.5t-96.5 98.5l104 41q18 -29 57.5 -50.5t76.5 -21.5q43 0 72.5 32t29.5 75q0 86 -84 96q-43 10 -105 -17l-88 54l66 131 q-207 18 -350.5 135t-157.5 317h205q23 -135 122 -209.5t261 -74.5q145 0 228 70.5t83 177.5q0 98 -70.5 153t-238.5 80q-551 72 -551 405q0 168 141.5 285t349.5 117q246 0 390.5 -122t150.5 -333h-192q-8 133 -102.5 206t-243.5 73q-129 0 -210 -65.5t-81 -153.5 q0 -184 336 -234q287 -39 405.5 -141.5t118.5 -274.5z" glyph-name="Scedilla" horiz-adv-x="1277" unicode="Ş"/><glyph d="M891 297q0 -127 -94.5 -213t-239.5 -102l-57 -113q35 8 71 4q80 -6 129.5 -58.5t49.5 -131.5q0 -90 -62.5 -152.5t-152.5 -62.5q-72 0 -141.5 40.5t-96.5 98.5l104 41q18 -29 57.5 -50.5t76.5 -21.5q43 0 72.5 32t29.5 75q0 86 -84 96q-43 10 -104 -17l-89 54l84 164 q-158 14 -263 104t-113 244h172q14 -96 84.5 -147.5t175.5 -51.5q102 0 155.5 48t53.5 120q0 61 -49.5 99t-167.5 57q-221 33 -307.5 110.5t-86.5 190.5q0 119 103.5 203.5t263.5 84.5q166 0 280.5 -87t122.5 -261h-166q-20 195 -233 195q-80 0 -137.5 -38t-57.5 -99 q0 -117 217.5 -148t308.5 -104.5t91 -202.5z" glyph-name="scedilla" horiz-adv-x="958" unicode="ş"/><glyph d="M358 1827h187l147 -189l150 189h184l-213 -293h-244zM668 -14q-229 0 -396.5 118.5t-183.5 337.5h205q23 -135 122 -209.5t261 -74.5q145 0 228 70.5t83 177.5q0 98 -70.5 153t-238.5 80q-551 72 -551 405q0 168 141.5 285t349.5 117q246 0 390.5 -122t150.5 -333h-192 q-8 133 -102.5 206t-243.5 73q-129 0 -210 -65.5t-81 -153.5q0 -184 336 -234q287 -39 405.5 -141.5t118.5 -274.5q0 -188 -144.5 -301.5t-377.5 -113.5z" glyph-name="Scaron" horiz-adv-x="1277" unicode="Š"/><glyph d="M164 1444h186l148 -189l149 189h184l-213 -293h-243zM500 -23q-178 0 -301 91.5t-131 259.5h172q14 -96 84.5 -147.5t175.5 -51.5q102 0 155.5 48t53.5 120q0 61 -49.5 99t-167.5 57q-221 33 -307.5 110.5t-86.5 190.5q0 119 103.5 203.5t263.5 84.5q166 0 280.5 -87 t122.5 -261h-166q-20 195 -233 195q-80 0 -137.5 -38t-57.5 -99q0 -117 217.5 -148t308.5 -104.5t91 -202.5q0 -141 -112.5 -230.5t-278.5 -89.5z" glyph-name="scaron" horiz-adv-x="958" unicode="š"/><glyph d="M727 27q78 -8 128 -59.5t50 -129.5q0 -90 -63.5 -153.5t-153.5 -63.5q-72 0 -140.5 41t-94.5 98l102 41q20 -29 59 -49t74 -20q45 0 75 30.5t30 75.5q0 39 -24 64.5t-60 29.5q-47 10 -105 -16l-90 55l14 29h-4l2 1264h-508l-2 170h1192l2 -170l-505 2l-3 -1237 q4 0 12.5 -1t12.5 -1z" glyph-name="Tcommaaccent" horiz-adv-x="1226" unicode="Ţ"/><glyph d="M477 -74q80 -6 129 -58t49 -132q0 -90 -62.5 -152.5t-152.5 -62.5q-72 0 -141.5 41t-95.5 98l104 41q18 -29 57 -50.5t76 -21.5q43 0 73 32t30 75q0 86 -84 96q-43 10 -105 -16l-88 53l72 141q-86 23 -135 90.5t-49 165.5v606h-158v152h158v309h172v-309h252v-152h-252 v-573q0 -74 29.5 -106.5t97.5 -32.5h129l-2 -160h-134l-40 -78q34 8 71 4z" glyph-name="tcommaaccent" horiz-adv-x="692" unicode="ţ"/><glyph d="M303 1817h186l148 -189l149 189h185l-213 -293h-244zM524 0l2 1264h-508l-2 170h1192l2 -170l-505 2l-3 -1266h-178z" glyph-name="Tcaron" horiz-adv-x="1226" unicode="Ť"/><glyph d="M-61 1694h186l147 -189l150 189h184l-213 -293h-243zM418 0q-119 0 -191.5 72.5t-72.5 193.5v606h-158v152h158v309h172v-309h252v-152h-252v-573q0 -74 29.5 -106.5t97.5 -32.5h129l-2 -160h-162z" glyph-name="tcaron" horiz-adv-x="649" unicode="ť"/><glyph d="M705 1266v-482h253v-143h-253l-3 -641h-178l2 641h-202v143h202v480h-508l-2 170h1192l2 -170z" glyph-name="Tbar" horiz-adv-x="1226" unicode="Ŧ"/><glyph d="M629 602h-281v-303q0 -74 30 -106.5t97 -32.5h129l-2 -160h-162q-119 0 -191.5 72.5t-72.5 193.5v336h-127v143h127v127h-158v152h158v309h172v-309h252v-152h-252v-127h281v-143z" glyph-name="tbar" horiz-adv-x="665" unicode="ŧ"/><glyph d="M881 1542q-121 0 -199 115q-29 49 -76 49q-66 0 -71 -86q0 -25 10 -61h-142q-4 18 -4 53q-2 102 54.5 166.5t146.5 64.5q125 0 199 -114q29 -49 78 -50q37 0 55 31t14 84q0 4 -3 14.5t-5 16.5h139q4 -20 4 -29q12 -111 -44 -182.5t-156 -71.5zM711 -16 q-254 0 -407.5 151.5t-153.5 407.5v891h180v-891q0 -182 103.5 -285.5t277.5 -103.5t277.5 103t103.5 286v891h182v-891q0 -256 -153.5 -407.5t-409.5 -151.5z" glyph-name="Utilde" horiz-adv-x="1423" unicode="Ũ"/><glyph d="M731 1157q-121 0 -199 115q-29 49 -75 49q-66 0 -72 -86q0 -25 10 -61h-141q-4 18 -4 53q-2 102 54 166.5t147 64.5q125 0 198 -115q29 -49 78 -49q37 0 55.5 31t14.5 84l-5.5 16.5t-3.5 14.5h140q4 -20 4 -29q12 -111 -44.5 -182.5t-156.5 -71.5zM522 -27 q-154 0 -268.5 104.5t-114.5 317.5v629h187v-614q0 -129 64.5 -204t166.5 -75q123 0 202 96.5t79 255.5v541h176v-1024h-176v137q-41 -63 -124 -113.5t-192 -50.5z" glyph-name="utilde" unicode="ũ"/><glyph d="M418 1567v143h635v-143h-635zM711 -16q-254 0 -407.5 151.5t-153.5 407.5v891h180v-891q0 -182 103.5 -285.5t277.5 -103.5t277.5 103t103.5 286v891h182v-891q0 -256 -153.5 -407.5t-409.5 -151.5z" glyph-name="Umacron" horiz-adv-x="1423" unicode="Ū"/><glyph d="M281 1178v143h634v-143h-634zM522 -27q-154 0 -268.5 104.5t-114.5 317.5v629h187v-614q0 -129 64.5 -204t166.5 -75q123 0 202 96.5t79 255.5v541h176v-1024h-176v137q-41 -63 -124 -113.5t-192 -50.5z" glyph-name="umacron" unicode="ū"/><glyph d="M739 1513q-160 0 -254 98.5t-98 248.5h143q4 -92 57.5 -156t151.5 -62q98 0 152.5 63.5t56.5 154.5h144q-2 -147 -96.5 -247t-256.5 -100zM711 -16q-254 0 -407.5 151.5t-153.5 407.5v891h180v-891q0 -182 103.5 -285.5t277.5 -103.5t277.5 103t103.5 286v891h182v-891 q0 -256 -153.5 -407.5t-409.5 -151.5z" glyph-name="Ubreve" horiz-adv-x="1423" unicode="Ŭ"/><glyph d="M600 1128q-160 0 -254 98.5t-98 248.5h143q4 -92 57.5 -156t151.5 -62q98 0 152.5 63.5t56.5 154.5h143q-2 -147 -96 -247t-256 -100zM522 -27q-154 0 -268.5 104.5t-114.5 317.5v629h187v-614q0 -129 64.5 -204t166.5 -75q123 0 202 96.5t79 255.5v541h176v-1024h-176 v137q-41 -63 -124 -113.5t-192 -50.5z" glyph-name="ubreve" unicode="ŭ"/><glyph d="M748 1485q-80 0 -137.5 56t-57.5 136t56.5 136.5t138.5 56.5q78 0 133 -56.5t55 -136.5q2 -78 -54 -135t-134 -57zM748 1587q39 0 64.5 25.5t25.5 64.5q0 41 -26 68t-64 27q-41 0 -67 -27t-26 -68t26 -65.5t67 -24.5zM711 -16q-254 0 -407.5 151.5t-153.5 407.5v891h180 v-891q0 -182 103.5 -285.5t277.5 -103.5t277.5 103t103.5 286v891h182v-891q0 -256 -153.5 -407.5t-409.5 -151.5z" glyph-name="Uring" horiz-adv-x="1423" unicode="Ů"/><glyph d="M612 1102q-80 0 -137 57.5t-57 134.5q0 80 56 136.5t138 56.5q78 0 133.5 -56.5t55.5 -136.5q2 -78 -54.5 -135t-134.5 -57zM612 1204q39 0 64.5 24.5t25.5 65.5t-25.5 68t-64.5 27q-41 0 -66.5 -27t-25.5 -68t25.5 -65.5t66.5 -24.5zM522 -27q-154 0 -268.5 104.5 t-114.5 317.5v629h187v-614q0 -129 64.5 -204t166.5 -75q123 0 202 96.5t79 255.5v541h176v-1024h-176v137q-41 -63 -124 -113.5t-192 -50.5z" glyph-name="uring" unicode="ů"/><glyph d="M449 1542v227h210v-227h-210zM811 1542v227h213v-227h-213zM711 -16q-254 0 -407.5 151.5t-153.5 407.5v891h180v-891q0 -182 103.5 -285.5t277.5 -103.5t277.5 103t103.5 286v891h182v-891q0 -256 -153.5 -407.5t-409.5 -151.5z" glyph-name="Uhungarumlaut" horiz-adv-x="1423" unicode="Ű"/><glyph d="M319 1161v228h211v-228h-211zM682 1161v228h213v-228h-213zM522 -27q-154 0 -268.5 104.5t-114.5 317.5v629h187v-614q0 -129 64.5 -204t166.5 -75q123 0 202 96.5t79 255.5v541h176v-1024h-176v137q-41 -63 -124 -113.5t-192 -50.5z" glyph-name="uhungarumlaut" unicode="ű"/><glyph d="M1092 1434h182v-891q0 -229 -125 -377t-340 -176q-100 -29 -167 -110t-67 -167q0 -57 34 -91t93 -34q119 0 189 101l76 -107q-123 -123 -299 -112q-113 4 -182.5 61t-69.5 162q0 182 217 295q-223 23 -353 171t-130 384v891h180v-891q0 -182 103.5 -285.5t277.5 -103.5 t277.5 103t103.5 286v891z" glyph-name="Uogonek" horiz-adv-x="1423" unicode="Ų"/><glyph d="M1063 -311l76 -107q-123 -123 -299 -112q-113 4 -182.5 61t-69.5 162q0 199 250 311v133q-41 -63 -124 -113.5t-192 -50.5q-154 0 -268.5 104.5t-114.5 317.5v629h187v-614q0 -129 64.5 -204t166.5 -75q123 0 202 96.5t79 255.5v541h176v-1020l16 -4 q-119 -14 -200.5 -101t-81.5 -186q0 -57 33.5 -91t92.5 -34q119 1 189 101z" glyph-name="uogonek" horiz-adv-x="1288" unicode="ų"/><glyph d="M866 1806h244l213 -293h-190l-144 189l-141 -189h-193zM463 0l-416 1434h182l330 -1180l318 1180h174l329 -1180l314 1180h182l-403 -1434h-187l-321 1149l-314 -1149h-188z" glyph-name="Wcircumflex" horiz-adv-x="1923" unicode="Ŵ"/><glyph d="M657 1403h244l213 -293h-190l-144 188l-141 -188h-193zM354 0l-327 1024h194l230 -799l225 799h158l229 -799l225 799h197l-328 -1024h-190l-209 729l-211 -729h-193z" glyph-name="wcircumflex" horiz-adv-x="1511" unicode="ŵ"/><glyph d="M555 1759h244l213 -293h-191l-143 189l-141 -189h-193zM561 0v586l-524 848h199l415 -684l428 684h187l-525 -848v-586h-180z" glyph-name="Ycircumflex" horiz-adv-x="1302" unicode="Ŷ"/><glyph d="M418 1438h244l212 -293h-190l-143 188l-142 -188h-192zM82 -410l-2 162h84q135 0 192 146l62 163l-402 963h195l297 -745l285 745h194l-459 -1165q-51 -135 -134 -202t-218 -67h-94z" glyph-name="ycircumflex" horiz-adv-x="1003" unicode="ŷ"/><glyph d="M387 1497v227h211v-227h-211zM750 1497v227h213v-227h-213zM561 0v586l-524 848h199l415 -684l428 684h187l-525 -848v-586h-180z" glyph-name="Ydieresis" horiz-adv-x="1302" unicode="Ÿ"/><glyph d="M717 1528h-178l211 262h223zM98 0v178l926 1077h-913v179h1136v-179l-917 -1077h905v-178h-1137z" glyph-name="Zacute" horiz-adv-x="1325" unicode="Ź"/><glyph d="M532 1147h-178l211 262h223zM78 0v162l608 700h-608v164l821 -2v-162l-604 -700h604v-162h-821z" glyph-name="zacute" horiz-adv-x="997" unicode="ź"/><glyph d="M606 1536v227h211v-227h-211zM98 0v178l926 1077h-913v179h1136v-179l-917 -1077h905v-178h-1137z" glyph-name="Zdotaccent" horiz-adv-x="1325" unicode="Ż"/><glyph d="M416 1190v227h211v-227h-211zM78 0v162l608 700h-608v164l821 -2v-162l-604 -700h604v-162h-821z" glyph-name="zdotaccent" horiz-adv-x="1169" unicode="ż"/><glyph d="M385 1815h186l148 -189l149 189h185l-213 -293h-244zM98 0v178l926 1077h-913v179h1136v-179l-917 -1077h905v-178h-1137z" glyph-name="Zcaron" horiz-adv-x="1325" unicode="Ž"/><glyph d="M197 1430h186l147 -189l150 189h184l-213 -293h-243zM78 0v162l608 700h-608v164l821 -2v-162l-604 -700h604v-162h-821z" glyph-name="zcaron" horiz-adv-x="1005" unicode="ž"/><glyph d="M532 1456q219 0 350.5 -142.5t131.5 -383.5q0 -238 -131 -385.5t-348 -147.5q-219 0 -342 162t-113 416h749v2q0 147 -80.5 235t-218.5 88q-86 0 -162.5 -48t-105.5 -144h-166q23 154 141.5 251t294.5 97zM823 817h-555q10 -121 80 -192.5t193 -71.5q121 0 196.5 72.5 t85.5 191.5z" glyph-name="uni018F" horiz-adv-x="1091" unicode="Ə"/><glyph d="M668 -14q-229 0 -396.5 118.5t-183.5 337.5h205q23 -135 122 -209.5t261 -74.5q145 0 228 70.5t83 177.5q0 98 -70.5 153t-238.5 80q-551 72 -551 405q0 168 141.5 285t349.5 117q246 0 390.5 -122t150.5 -333h-192q-8 133 -102.5 206t-243.5 73q-129 0 -210 -65.5 t-81 -153.5q0 -184 336 -234q287 -39 405.5 -141.5t118.5 -274.5q0 -188 -144.5 -301.5t-377.5 -113.5zM600 -569v106q104 4 98 115h-108v227h213l-2 -227q2 -109 -53.5 -165t-147.5 -56z" glyph-name="Scommaaccent" horiz-adv-x="1277" unicode="Ș"/><glyph d="M500 -23q-178 0 -301 91.5t-131 259.5h172q14 -96 84.5 -147.5t175.5 -51.5q102 0 155.5 48t53.5 120q0 61 -49.5 99t-167.5 57q-221 33 -307.5 110.5t-86.5 190.5q0 119 103.5 203.5t263.5 84.5q166 0 280.5 -87t122.5 -261h-166q-20 195 -233 195q-80 0 -137.5 -38 t-57.5 -99q0 -117 217.5 -148t308.5 -104.5t91 -202.5q0 -141 -112.5 -230.5t-278.5 -89.5zM422 -594v107q104 4 98 114h-108v228h213l-2 -228q2 -109 -53.5 -165t-147.5 -56z" glyph-name="scommaaccent" horiz-adv-x="958" unicode="ș"/><glyph d="M524 0l2 1264h-508l-2 170h1192l2 -170l-505 2l-3 -1266h-178zM541 -569v106q104 4 98 115h-109v227h213l-2 -227q2 -109 -53 -165t-147 -56z" glyph-name="uni021A" horiz-adv-x="1226" unicode="Ț"/><glyph d="M418 0q-119 0 -191.5 72.5t-72.5 193.5v606h-158v152h158v309h172v-309h252v-152h-252v-573q0 -74 29.5 -106.5t97.5 -32.5h129l-2 -160h-162zM307 -569v106q104 4 99 115h-109v227h213l-2 -227q2 -109 -53.5 -165t-147.5 -56z" glyph-name="uni021B" horiz-adv-x="618" unicode="ț"/><glyph d="M336 1540v143h635v-143h-635zM561 0v586l-524 848h199l415 -684l428 684h187l-525 -848v-586h-180z" glyph-name="uni0232" horiz-adv-x="1302" unicode="Ȳ"/><glyph d="M203 1178v143h635v-143h-635zM82 -410l-2 162h84q135 0 192 146l62 163l-402 963h195l297 -745l285 745h194l-459 -1165q-51 -135 -134 -202t-218 -67h-94z" glyph-name="uni0233" horiz-adv-x="1003" unicode="ȳ"/><glyph d="M-25 -362v167h43q63 0 102.5 39t39.5 117v1063h174v-1087q0 -139 -80 -219t-211 -80h-68z" glyph-name="uni0237" horiz-adv-x="462" unicode="ȷ"/><glyph d="M895 1516l-256 262h225l209 -262h-178zM463 0l-416 1434h182l330 -1180l318 1180h174l329 -1180l314 1180h182l-403 -1434h-187l-321 1149l-314 -1149h-188z" glyph-name="Wgrave" horiz-adv-x="1923" unicode="Ẁ"/><glyph d="M711 1153l-256 262h225l209 -262h-178zM354 0l-327 1024h194l230 -799l225 799h158l229 -799l225 799h197l-328 -1024h-190l-209 729l-211 -729h-193z" glyph-name="wgrave" horiz-adv-x="1511" unicode="ẁ"/><glyph d="M1077 1520h-178l211 262h223zM463 0l-416 1434h182l330 -1180l318 1180h174l329 -1180l314 1180h182l-403 -1434h-187l-321 1149l-314 -1149h-188z" glyph-name="Wacute" horiz-adv-x="1923" unicode="Ẃ"/><glyph d="M872 1112h-178l211 262h223zM354 0l-327 1024h194l230 -799l225 799h158l229 -799l225 799h197l-328 -1024h-190l-209 729l-211 -729h-193z" glyph-name="wacute" horiz-adv-x="1511" unicode="ẃ"/><glyph d="M688 1569v227h211v-227h-211zM1051 1569v227h213v-227h-213zM463 0l-416 1434h182l330 -1180l318 1180h174l329 -1180l314 1180h182l-403 -1434h-187l-321 1149l-314 -1149h-188z" glyph-name="Wdieresis" horiz-adv-x="1923" unicode="Ẅ"/><glyph d="M498 1165v228h211v-228h-211zM860 1165v228h213v-228h-213zM354 0l-327 1024h194l230 -799l225 799h158l229 -799l225 799h197l-328 -1024h-190l-209 729l-211 -729h-193z" glyph-name="wdieresis" horiz-adv-x="1511" unicode="ẅ"/><glyph d="M180 0v1434h187v-1434h-187zM195 -305v227h211v-227h-211z" glyph-name="uni1ECA" horiz-adv-x="557" unicode="Ị"/><glyph d="M139 0v1024h183v-1024h-183zM152 -377v227h210v-227h-210z" glyph-name="uni1ECB" horiz-adv-x="501" unicode="ị"/><glyph d="M770 -20q-285 0 -478.5 211.5t-193.5 525.5q0 317 191.5 525t480.5 208t480.5 -209t191.5 -528q0 -313 -193.5 -523t-478.5 -210zM768 158q213 0 350 156.5t137 392.5q0 246 -136 407.5t-349 161.5t-347 -161t-134 -404q0 -238 135 -395.5t344 -157.5zM707 -328v228h211 v-228h-211z" glyph-name="uni1ECC" horiz-adv-x="1540" unicode="Ọ"/><glyph d="M565 -10q-211 0 -349 147.5t-138 374.5q0 231 138 378.5t349 147.5q213 0 349.5 -147.5t136.5 -378.5q0 -227 -138.5 -374.5t-347.5 -147.5zM563 154q141 0 227.5 100t86.5 256q0 162 -82 262t-230 100q-141 0 -225 -100t-84 -260q0 -158 84 -258t223 -100zM485 -352v227 h211v-227h-211z" glyph-name="uni1ECD" horiz-adv-x="1128" unicode="ọ"/><glyph d="M711 -16q-254 0 -407.5 151.5t-153.5 407.5v891h180v-891q0 -182 103.5 -285.5t277.5 -103.5t277.5 103t103.5 286v891h182v-891q0 -256 -153.5 -407.5t-409.5 -151.5zM627 -334v228h211v-228h-211z" glyph-name="uni1EE4" horiz-adv-x="1423" unicode="Ụ"/><glyph d="M522 -27q-154 0 -268.5 104.5t-114.5 317.5v629h187v-614q0 -129 64.5 -204t166.5 -75q123 0 202 96.5t79 255.5v541h176v-1024h-176v137q-41 -63 -124 -113.5t-192 -50.5zM506 -354v227h211v-227h-211z" glyph-name="uni1EE5" unicode="ụ"/><glyph d="M643 1454l-256 262h225l209 -262h-178zM561 0v586l-524 848h199l415 -684l428 684h187l-525 -848v-586h-180z" glyph-name="Ygrave" horiz-adv-x="1302" unicode="Ỳ"/><glyph d="M508 1106l-256 262h225l209 -262h-178zM82 -410l-2 162h84q135 0 192 146l62 163l-402 963h195l297 -745l285 745h194l-459 -1165q-51 -135 -134 -202t-218 -67h-94z" glyph-name="ygrave" horiz-adv-x="1003" unicode="ỳ"/><glyph d="M193 459v127h1024v-127h-1024z" glyph-name="endash" horiz-adv-x="1406" unicode="–"/><glyph d="M20 459v127h2048v-127h-2048z" glyph-name="emdash" horiz-adv-x="2086" unicode="—"/><glyph d="M70 1182v227q0 109 54 165t148 56v-106q-106 -4 -100 -115h109v-227h-211z" glyph-name="quoteleft" horiz-adv-x="333" unicode="‘"/><glyph d="M68 1180v106q102 4 100 115h-111v227h213v-227q-2 -111 -55 -166t-147 -55z" glyph-name="quoteright" horiz-adv-x="253" unicode="’"/><glyph d="M98 -221v106q102 4 101 115h-111v227h213v-227q-2 -109 -55.5 -165t-147.5 -56z" glyph-name="quotesinglbase" horiz-adv-x="489" unicode="‚"/><glyph d="M27 1182l2 227q2 109 55 165t145 56v-106q-104 -4 -98 -115h109v-227h-213zM328 1182v227q2 109 55 165t147 56v-106q-106 -4 -100 -115h109v-227h-211z" glyph-name="quotedblleft" horiz-adv-x="559" unicode="“"/><glyph d="M20 1180v104q104 4 99 117h-109v225h213l-2 -225q0 -111 -54.5 -166t-146.5 -55zM330 1180v104q104 4 98 117h-109v225h213l-2 -225q0 -111 -54 -166t-146 -55z" glyph-name="quotedblright" horiz-adv-x="563" unicode="”"/><glyph d="M104 -221v106q104 4 99 115h-109v227h213l-2 -227q0 -109 -54.5 -165t-146.5 -56zM412 -221v106q102 4 100 115h-111v227h213v-227q-2 -109 -55 -165t-147 -56z" glyph-name="quotedblbase" horiz-adv-x="794" unicode="„"/><glyph d="M401 502v397h371v-397h-371z" glyph-name="bullet" horiz-adv-x="1228" unicode="•"/><glyph d="M145 0v227h213v-227h-213zM645 0v227h213v-227h-213zM1145 0v227h213v-227h-213z" glyph-name="ellipsis" horiz-adv-x="1501" unicode="…"/><glyph d="M117 0l1057 1536h182l-1057 -1536h-182zM403.5 963q-110.5 0 -188.5 82.5t-78 201.5t78 202t188.5 83t188.5 -83t78 -202t-78 -201.5t-188.5 -82.5zM403 1098q53 0 90 43t37 104.5t-36.5 104.5t-90.5 43q-51 0 -87.5 -43t-36.5 -104.5t36.5 -104.5t87.5 -43zM1710 -6 q-111 0 -188.5 84t-77.5 202.5t77.5 201.5t188.5 83t188.5 -83t77.5 -201.5t-77.5 -202.5t-188.5 -84zM1083.5 -8q-110.5 0 -188.5 83t-78 201.5t78 201.5t188.5 83t188.5 -83t78 -201.5t-78 -201.5t-188.5 -83zM1710 131q51 0 88 43t37 104.5t-37 103.5t-88 42 q-53 0 -90 -42t-37 -103.5t37 -104.5t90 -43zM1083.5 129q53.5 0 90 43t36.5 104.5t-36.5 103.5t-90 42t-89.5 -42t-36 -104q0 -63 36 -105t89.5 -42z" glyph-name="perthousand" horiz-adv-x="2101" unicode="‰"/><glyph d="M424 195l-311 376l311 377h168l-311 -377l311 -376h-168z" glyph-name="guilsinglleft" horiz-adv-x="694" unicode="‹"/><glyph d="M129 195l311 376l-311 377h168l311 -377l-311 -376h-168z" glyph-name="guilsinglright" horiz-adv-x="694" unicode="›"/><glyph d="M729 119q152 0 241 90t109 260h170q-20 -231 -156.5 -368.5t-355.5 -135.5q-223 2 -370.5 143.5t-176.5 407.5h-139v150h133v125h-133v139h139q29 266 176.5 408.5t370.5 144.5q219 0 353.5 -134.5t152.5 -357.5h-172q-14 166 -102 251t-240 85q-154 -2 -248 -107.5 t-108 -289.5h426v-139h-432v-125h432v-150h-426q14 -184 108 -289.5t248 -107.5z" glyph-name="Euro" horiz-adv-x="1318" unicode="€"/><glyph d="M438 944v420h-184v70h440l2 -70h-184l-2 -418zM766 946v486h88l174 -390l168 390h86v-486h-72v346l-147 -344h-74l-151 348v-350h-72z" glyph-name="trademark" horiz-adv-x="1558" unicode="™"/><glyph d="M938 -18q-362 0 -618.5 230t-256.5 554q0 328 256 559t619 231q365 0 621 -231t256 -559v-21h-1418q-12 0 -12 -8v-430q0 -23 18 -49q227 -233 537 -233q166 0 313.5 69.5t251.5 192.5h125q-119 -141 -301 -223t-391 -82zM397 788h1088q8 0 8 15v430q0 33 -20 51 q-229 225 -532.5 225t-534.5 -231q-20 -25 -21 -53v-422q0 -15 12 -15z" glyph-name="estimated" horiz-adv-x="1880" unicode="℮"/><glyph d="M131 516v146h1229v-146h-1229z" glyph-name="minus" horiz-adv-x="1488" unicode="−"/><glyph d="M1360 664h-426l-205 -240h631v-143h-754l-235 -279h-152l238 279h-326v143h449l204 240h-653v143h774l189 219h149l-188 -219h305v-143z" glyph-name="notequal" horiz-adv-x="1488" unicode="≠"/><glyph d="M1350 180l-1131 561v125l1131 555v-155l-963 -463l963 -465v-158zM901 39v-47h-235v47h235z" glyph-name="lessequal" horiz-adv-x="1636" unicode="≤"/><glyph d="M217 180v158l961 465l-961 463v155l1131 -555v-125zM213 39l688 33l451 -80l-686 -33z" glyph-name="greaterequal" horiz-adv-x="1562" unicode="≥"/><glyph d="M1178 596v-141h-127v-455h-170v156q-37 -70 -129.5 -124.5t-208.5 -54.5q-176 0 -311.5 129.5t-151.5 348.5h-88v141h92q25 201 154 319.5t299 118.5q117 0 207 -49t137 -127v576h170v-838h127zM567 872q-115 0 -194.5 -75.5t-102.5 -200.5h602q-23 125 -105.5 200.5 t-199.5 75.5zM567 143q129 0 215 86t99 226h-613q16 -139 97 -225.5t202 -86.5z" glyph-name="glyph336" horiz-adv-x="1126"/><glyph d="M352 1092h-178l211 262h223zM150 0v1024h172v-133q16 33 42.5 62.5t98.5 59t168 27.5h28v-178l-20 -2q-317 8 -317 -305v-555h-172z" glyph-name="glyph337" horiz-adv-x="684"/><glyph d="M119 -2v1436l588 2q186 0 302.5 -121t116.5 -309q0 -152 -82.5 -261.5t-224.5 -144.5l352 -600h-196l-344 584h-334v-586h-178zM297 743h375q123 0 200.5 71t77.5 194q0 125 -77.5 197.5t-200.5 72.5h-375v-535z" glyph-name="glyph338" horiz-adv-x="1232"/><glyph d="M551 -23q-201 0 -330 149.5t-129 379.5q0 231 127 379.5t326 148.5q223 0 338 -166v156h174v-1024h-174v152q-49 -80 -137.5 -127.5t-194.5 -47.5zM573 135q139 0 226.5 100.5t87.5 262.5q0 168 -87 273.5t-227 105.5q-135 0 -218 -103.5t-83 -267.5t83 -267.5 t218 -103.5z" glyph-name="glyph339" horiz-adv-x="1157"/><glyph d="M293 0q-131 0 -211 80t-80 219l6 1135h174l-6 -1110q0 -78 39 -117t102 -39h43v-168h-67z" glyph-name="glyph340" horiz-adv-x="456"/></font>
</defs>
</svg>
